<?xml version="1.0" encoding="UTF-8" standalone="no"?>
<!DOCTYPE svg PUBLIC "-//W3C//DTD SVG 1.1//EN" "http://www.w3.org/Graphics/SVG/1.1/DTD/svg11.dtd">
<svg width="100%" height="100%" viewBox="0 0 360 200" version="1.1" xmlns="http://www.w3.org/2000/svg" xmlns:xlink="http://www.w3.org/1999/xlink" xml:space="preserve" xmlns:serif="http://www.serif.com/" style="fill-rule:evenodd;clip-rule:evenodd;stroke-linejoin:round;stroke-miterlimit:1.41421;">
    <g id="window-b-background" serif:id="window b background" transform="matrix(1.25627,0,0,1.25627,0,0)">
        <path d="M276.139,0C281.654,0.001 286.139,4.486 286.139,10L286.139,114.838C286.139,120.352 281.653,124.838 276.139,124.838L116.319,124.838C110.805,124.838 106.319,120.352 106.319,114.838L106.319,10C106.319,4.486 110.804,0.001 116.319,0L276.139,0Z" style="fill:white;"/>
    </g>
    <g id="window-b" serif:id="window b" transform="matrix(1.25627,0,0,1.25627,-345.999,-121.893)">
        <g opacity="0.800003">
            <g transform="matrix(1,0,0,1,391.736,99.0277)">
                <path d="M0,120.837C-4.411,120.837 -8,117.248 -8,112.837L-8,8C-8,3.588 -4.411,0 0,0L159.82,0C164.231,0 167.82,3.588 167.82,8L167.82,112.837C167.82,117.248 164.231,120.837 159.82,120.837L0,120.837Z" style="fill:rgb(166,166,166);fill-rule:nonzero;"/>
            </g>
            <g transform="matrix(1,0,0,1,551.557,221.865)">
                <path d="M0,-124.838L-159.82,-124.838C-165.334,-124.838 -169.82,-120.352 -169.82,-114.838L-169.82,-10C-169.82,-4.486 -165.334,0 -159.82,0L0,0C5.514,0 10,-4.486 10,-10L10,-114.838C10,-120.352 5.514,-124.838 0,-124.838M0,-120.838C3.3,-120.838 6,-118.138 6,-114.838L6,-10C6,-6.7 3.3,-4 0,-4L-159.82,-4C-163.12,-4 -165.82,-6.7 -165.82,-10L-165.82,-114.838C-165.82,-118.138 -163.12,-120.838 -159.82,-120.838L0,-120.838" style="fill:rgb(166,166,166);fill-rule:nonzero;"/>
            </g>
            <g transform="matrix(1,0,0,1,385.236,100.527)">
                <path d="M0,11.309L0,6.5C0,2.916 2.916,0 6.5,0L166.32,0C169.904,0 172.82,2.916 172.82,6.5L172.82,11.309L0,11.309Z" style="fill:rgb(166,166,166);fill-rule:nonzero;"/>
            </g>
            <g transform="matrix(1,0,0,1,551.557,112.336)">
                <path d="M0,-12.309L-159.82,-12.309C-163.68,-12.309 -166.82,-9.169 -166.82,-5.309L-166.82,0L7,0L7,-1L7,-5.309C7,-9.169 3.86,-12.309 0,-12.309M0,-11.309C3.313,-11.309 6,-8.622 6,-5.309L6,-1L-165.82,-1L-165.82,-5.309C-165.82,-8.622 -163.134,-11.309 -159.82,-11.309L0,-11.309" style="fill:rgb(166,166,166);fill-rule:nonzero;"/>
            </g>
            <g transform="matrix(1,0,0,1,395.616,103.104)">
                <path d="M0,6.155C-1.696,6.155 -3.077,4.775 -3.077,3.078C-3.077,1.381 -1.696,0 0,0C1.696,0 3.077,1.381 3.077,3.078C3.077,4.775 1.696,6.155 0,6.155" style="fill:rgb(242,242,242);fill-rule:nonzero;"/>
            </g>
            <g transform="matrix(1,0,0,1,395.616,109.76)">
                <path d="M0,-7.155C-1.973,-7.155 -3.577,-5.55 -3.577,-3.577C-3.577,-1.605 -1.973,0 0,0C1.973,0 3.577,-1.605 3.577,-3.577C3.577,-5.55 1.973,-7.155 0,-7.155M0,-6.155C1.423,-6.155 2.577,-5.001 2.577,-3.577C2.577,-2.154 1.423,-1 0,-1C-1.423,-1 -2.577,-2.154 -2.577,-3.577C-2.577,-5.001 -1.423,-6.155 0,-6.155" style="fill:rgb(166,166,166);fill-rule:nonzero;"/>
            </g>
            <g transform="matrix(1,0,0,1,408.073,103.104)">
                <path d="M0,6.155C-1.696,6.155 -3.077,4.775 -3.077,3.078C-3.077,1.381 -1.696,0 0,0C1.696,0 3.077,1.381 3.077,3.078C3.077,4.775 1.696,6.155 0,6.155" style="fill:rgb(242,242,242);fill-rule:nonzero;"/>
            </g>
            <g transform="matrix(1,0,0,1,408.073,109.76)">
                <path d="M0,-7.155C-1.973,-7.155 -3.577,-5.55 -3.577,-3.577C-3.577,-1.605 -1.973,0 0,0C1.973,0 3.577,-1.605 3.577,-3.577C3.577,-5.55 1.973,-7.155 0,-7.155M0,-6.155C1.423,-6.155 2.577,-5.001 2.577,-3.577C2.577,-2.154 1.423,-1 0,-1C-1.423,-1 -2.577,-2.154 -2.577,-3.577C-2.577,-5.001 -1.423,-6.155 0,-6.155" style="fill:rgb(166,166,166);fill-rule:nonzero;"/>
            </g>
            <g transform="matrix(1,0,0,1,420.101,103.104)">
                <path d="M0,6.155C-1.696,6.155 -3.077,4.775 -3.077,3.078C-3.077,1.381 -1.696,0 0,0C1.696,0 3.077,1.381 3.077,3.078C3.077,4.775 1.696,6.155 0,6.155" style="fill:rgb(242,242,242);fill-rule:nonzero;"/>
            </g>
            <g transform="matrix(1,0,0,1,420.101,109.76)">
                <path d="M0,-7.155C-1.973,-7.155 -3.577,-5.55 -3.577,-3.577C-3.577,-1.605 -1.973,0 0,0C1.973,0 3.577,-1.605 3.577,-3.577C3.577,-5.55 1.973,-7.155 0,-7.155M0,-6.155C1.423,-6.155 2.577,-5.001 2.577,-3.577C2.577,-2.154 1.423,-1 0,-1C-1.423,-1 -2.577,-2.154 -2.577,-3.577C-2.577,-5.001 -1.423,-6.155 0,-6.155" style="fill:rgb(166,166,166);fill-rule:nonzero;"/>
            </g>
            <g>
                <g opacity="0.619995">
                    <g transform="matrix(1,0,0,1,0,-554.99)">
                        <rect x="381.941" y="667.686" width="179.41" height="19.618" style="fill:rgb(122,122,122);"/>
                    </g>
                    <g transform="matrix(1,0,0,1,0,-554.99)">
                        <path d="M561.852,667.186L381.441,667.186L381.441,687.804L561.852,687.804L561.852,667.186ZM560.852,686.804L382.441,686.804L382.441,668.186L560.852,668.186L560.852,686.804Z" style="fill:rgb(242,242,242);fill-rule:nonzero;"/>
                    </g>
                </g>
            </g>
            <g transform="matrix(1,0,0,1,547.825,116.706)">
                <path d="M0,12.027L-152.356,12.027C-153.456,12.027 -154.356,11.127 -154.356,10.027L-154.356,2C-154.356,0.9 -153.456,0 -152.356,0L0,0C1.1,0 2,0.9 2,2L2,10.027C2,11.127 1.1,12.027 0,12.027" style="fill:white;fill-rule:nonzero;"/>
            </g>
            <g>
                <g opacity="0.800003">
                    <g transform="matrix(1,0,0,1,498.997,119.068)">
                        <path d="M0,6.873L-101.092,6.873C-101.642,6.873 -102.092,6.423 -102.092,5.873L-102.092,1C-102.092,0.45 -101.642,0 -101.092,0L0,0C0.55,0 1,0.45 1,1L1,5.873C1,6.423 0.55,6.873 0,6.873" style="fill:rgb(58,216,250);fill-rule:nonzero;"/>
                    </g>
                </g>
            </g>
            <g>
                <g opacity="0.619995">
                    <g transform="matrix(1,0,0,1,0,-515.472)">
                        <rect x="421.419" y="653.581" width="101.092" height="8.31" style="fill:rgb(204,204,204);"/>
                    </g>
                    <g transform="matrix(1,0,0,1,0,-515.472)">
                        <path d="M523.511,652.581L420.419,652.581L420.419,662.891L523.511,662.891L523.511,652.581ZM521.511,660.891L422.419,660.891L422.419,654.581L521.511,654.581L521.511,660.891Z" style="fill:white;fill-rule:nonzero;"/>
                    </g>
                </g>
            </g>
            <g>
                <g opacity="0.619995">
                    <g transform="matrix(1,0,0,1,0,-484.544)">
                        <rect x="395.646" y="638.117" width="152.638" height="8.31" style="fill:rgb(204,204,204);"/>
                    </g>
                    <g transform="matrix(1,0,0,1,0,-484.544)">
                        <path d="M549.284,637.117L394.646,637.117L394.646,647.427L549.284,647.427L549.284,637.117ZM547.284,645.427L396.646,645.427L396.646,639.117L547.284,639.117L547.284,645.427Z" style="fill:white;fill-rule:nonzero;"/>
                    </g>
                </g>
            </g>
            <g>
                <g opacity="0.619995">
                    <g transform="matrix(1,0,0,1,0,-453.617)">
                        <rect x="395.646" y="622.654" width="152.638" height="8.309" style="fill:rgb(204,204,204);"/>
                    </g>
                    <g transform="matrix(1,0,0,1,0,-453.617)">
                        <path d="M549.284,621.654L394.646,621.654L394.646,631.963L549.284,631.963L549.284,621.654ZM547.284,629.963L396.646,629.963L396.646,623.654L547.284,623.654L547.284,629.963Z" style="fill:white;fill-rule:nonzero;"/>
                    </g>
                </g>
            </g>
            <g>
                <g opacity="0.619995">
                    <g transform="matrix(1,0,0,1,0,-422.689)">
                        <rect x="395.646" y="607.19" width="152.638" height="8.309" style="fill:rgb(204,204,204);"/>
                    </g>
                    <g transform="matrix(1,0,0,1,0,-422.689)">
                        <path d="M549.284,606.19L394.646,606.19L394.646,616.499L549.284,616.499L549.284,606.19ZM547.284,614.499L396.646,614.499L396.646,608.19L547.284,608.19L547.284,614.499Z" style="fill:white;fill-rule:nonzero;"/>
                    </g>
                </g>
            </g>
            <g>
                <g opacity="0.619995">
                    <g transform="matrix(1,0,0,1,0,-391.761)">
                        <rect x="395.646" y="591.726" width="152.638" height="8.309" style="fill:rgb(204,204,204);"/>
                    </g>
                    <g transform="matrix(1,0,0,1,0,-391.761)">
                        <path d="M549.284,590.726L394.646,590.726L394.646,601.035L549.284,601.035L549.284,590.726ZM547.284,599.035L396.646,599.035L396.646,592.726L547.284,592.726L547.284,599.035Z" style="fill:white;fill-rule:nonzero;"/>
                    </g>
                </g>
            </g>
        </g>
    </g>
    <g id="window-c-background" serif:id="window c background" transform="matrix(1.25627,0,0,1.25627,0,0)">
        <path d="M92.867,0.994C96.168,0.994 98.867,3.694 98.867,6.994L98.867,111.831C98.867,115.131 96.167,117.831 92.867,117.831L18.957,117.831C15.657,117.831 12.957,115.131 12.957,111.831L12.957,33.21L1,33.21C0.45,33.21 0,32.76 0,32.21L0,9.296C0,8.746 0.45,8.296 1,8.296L12.957,8.296L12.957,6.994C12.957,3.694 15.657,0.994 18.957,0.994L92.867,0.994Z" style="fill:white;"/>
    </g>
    <g id="window-c" serif:id="window c" transform="matrix(1.25627,0,0,1.25627,-345.999,-121.893)">
        <g opacity="0.800003">
            <g transform="matrix(1,0,0,1,294.375,98.0209)">
                <path d="M0,116.837L73.91,116.837C77.21,116.837 79.91,114.137 79.91,110.837L79.91,6C79.91,2.7 77.21,0 73.91,0L0,0C-3.3,0 -6,2.7 -6,6L-6,110.837C-6,114.137 -3.3,116.837 0,116.837" style="fill:rgb(166,166,166);fill-rule:nonzero;"/>
            </g>
            <g>
                <g opacity="0.619995">
                    <g transform="matrix(1,0,0,1,0,-565.299)">
                        <rect x="298.956" y="678.495" width="66.729" height="8.309" style="fill:rgb(204,204,204);"/>
                    </g>
                    <g transform="matrix(1,0,0,1,0,-565.299)">
                        <path d="M366.684,677.495L297.956,677.495L297.956,687.804L366.684,687.804L366.684,677.495ZM364.684,685.804L299.956,685.804L299.956,679.495L364.684,679.495L364.684,685.804Z" style="fill:white;fill-rule:nonzero;"/>
                    </g>
                    <g transform="matrix(1,0,0,1,0,-530.935)">
                        <rect x="298.956" y="661.313" width="66.729" height="8.309" style="fill:rgb(204,204,204);"/>
                    </g>
                    <g transform="matrix(1,0,0,1,0,-530.935)">
                        <path d="M366.684,660.313L297.956,660.313L297.956,670.622L366.684,670.622L366.684,660.313ZM364.684,668.622L299.956,668.622L299.956,662.313L364.684,662.313L364.684,668.622Z" style="fill:white;fill-rule:nonzero;"/>
                    </g>
                    <g transform="matrix(1,0,0,1,0,-496.571)">
                        <rect x="298.956" y="644.131" width="66.729" height="8.309" style="fill:rgb(204,204,204);"/>
                    </g>
                    <g transform="matrix(1,0,0,1,0,-496.57)">
                        <path d="M366.684,643.13L297.956,643.13L297.956,653.44L366.684,653.44L366.684,643.13ZM364.684,651.439L299.956,651.439L299.956,645.129L364.684,645.129L364.684,651.439Z" style="fill:white;fill-rule:nonzero;"/>
                    </g>
                    <g transform="matrix(1,0,0,1,0,-462.207)">
                        <rect x="298.956" y="626.949" width="66.729" height="8.309" style="fill:rgb(204,204,204);"/>
                    </g>
                    <g transform="matrix(1,0,0,1,0,-462.207)">
                        <path d="M366.684,625.949L297.956,625.949L297.956,636.258L366.684,636.258L366.684,625.949ZM364.684,634.258L299.956,634.258L299.956,627.949L364.684,627.949L364.684,634.258Z" style="fill:white;fill-rule:nonzero;"/>
                    </g>
                    <g transform="matrix(1,0,0,1,0,-427.843)">
                        <rect x="298.956" y="609.767" width="66.729" height="8.309" style="fill:rgb(204,204,204);"/>
                    </g>
                    <g transform="matrix(1,0,0,1,0,-427.843)">
                        <path d="M366.684,608.767L297.956,608.767L297.956,619.076L366.684,619.076L366.684,608.767ZM364.684,617.076L299.956,617.076L299.956,610.767L364.684,610.767L364.684,617.076Z" style="fill:white;fill-rule:nonzero;"/>
                    </g>
                    <g transform="matrix(1,0,0,1,0,-393.48)">
                        <rect x="298.956" y="592.585" width="66.729" height="8.31" style="fill:rgb(204,204,204);"/>
                    </g>
                    <g transform="matrix(1,0,0,1,0,-393.48)">
                        <path d="M366.684,591.585L297.956,591.585L297.956,601.895L366.684,601.895L366.684,591.585ZM364.684,599.895L299.956,599.895L299.956,593.585L364.684,593.585L364.684,599.895Z" style="fill:white;fill-rule:nonzero;"/>
                    </g>
                </g>
            </g>
            <g transform="matrix(1,0,0,1,0,-564.44)">
                <rect x="276.418" y="670.763" width="47.827" height="22.914" style="fill:rgb(242,242,242);"/>
            </g>
            <g transform="matrix(1,0,0,1,324.246,130.237)">
                <path d="M0,-24.914L-47.828,-24.914C-48.378,-24.914 -48.828,-24.464 -48.828,-23.914L-48.828,-1C-48.828,-0.45 -48.378,0 -47.828,0L0,0C0.55,0 1,-0.45 1,-1L1,-23.914C1,-24.464 0.55,-24.914 0,-24.914M-1,-2L-46.828,-2L-46.828,-22.914L-1,-22.914L-1,-2Z" style="fill:rgb(122,122,122);fill-rule:nonzero;"/>
            </g>
            <g transform="matrix(1,0,0,1,287.084,122.98)">
                <path d="M0,-9.534L-1.825,-9.534L-1.825,-5.447L0,-5.447C0.638,-5.447 1.172,-5.514 1.601,-5.648C2.03,-5.782 2.356,-6 2.582,-6.305C2.807,-6.609 2.919,-7.007 2.919,-7.5C2.919,-8.09 2.746,-8.57 2.399,-8.941C2.01,-9.337 1.21,-9.534 0,-9.534M0.657,-3.403L-1.825,-3.403L-1.825,0.383C-1.825,0.925 -1.953,1.335 -2.208,1.615C-2.464,1.895 -2.786,2.035 -3.175,2.035C-3.583,2.035 -3.911,1.896 -4.161,1.619C-4.41,1.342 -4.535,0.937 -4.535,0.402L-4.535,-9.909C-4.535,-10.504 -4.398,-10.93 -4.124,-11.186C-3.851,-11.441 -3.416,-11.569 -2.819,-11.569L0.657,-11.569C1.685,-11.569 2.475,-11.49 3.029,-11.331C3.577,-11.18 4.049,-10.927 4.448,-10.575C4.846,-10.221 5.149,-9.789 5.355,-9.279C5.562,-8.768 5.666,-8.193 5.666,-7.555C5.666,-6.192 5.246,-5.159 4.407,-4.457C3.567,-3.755 2.317,-3.403 0.657,-3.403" style="fill:rgb(122,122,122);fill-rule:nonzero;"/>
            </g>
            <g transform="matrix(1,0,0,1,297.74,122.642)">
                <path d="M0,-9.086L0,-0.008L2.053,-0.008C2.503,-0.008 2.855,-0.02 3.111,-0.044C3.367,-0.069 3.631,-0.129 3.905,-0.227C4.179,-0.324 4.416,-0.461 4.617,-0.638C5.523,-1.404 5.976,-2.724 5.976,-4.597C5.976,-5.917 5.776,-6.905 5.378,-7.563C4.98,-8.219 4.489,-8.638 3.905,-8.817C3.321,-8.996 2.615,-9.086 1.788,-9.086L0,-9.086ZM-1.049,-11.231L2.481,-11.231C3.4,-11.231 4.187,-11.145 4.844,-10.975C5.501,-10.804 6.098,-10.485 6.633,-10.017C8.026,-8.825 8.722,-7.012 8.722,-4.579C8.722,-3.776 8.652,-3.043 8.512,-2.38C8.372,-1.717 8.157,-1.12 7.865,-0.587C7.573,-0.055 7.199,0.421 6.742,0.841C6.383,1.163 5.991,1.422 5.565,1.616C5.14,1.811 4.682,1.948 4.192,2.026C3.703,2.106 3.15,2.145 2.537,2.145L-0.995,2.145C-1.487,2.145 -1.858,2.071 -2.107,1.922C-2.357,1.773 -2.52,1.563 -2.596,1.292C-2.672,1.021 -2.709,0.67 -2.709,0.238L-2.709,-9.57C-2.709,-10.153 -2.579,-10.576 -2.317,-10.838C-2.056,-11.1 -1.633,-11.231 -1.049,-11.231" style="fill:rgb(122,122,122);fill-rule:nonzero;"/>
            </g>
            <g transform="matrix(1,0,0,1,316.836,122.926)">
                <path d="M0,-9.426L-5.337,-9.426L-5.337,-6.004L-0.876,-6.004C-0.462,-6.004 -0.153,-5.911 0.05,-5.726C0.254,-5.541 0.356,-5.293 0.356,-4.982C0.356,-4.672 0.252,-4.426 0.046,-4.243C-0.161,-4.061 -0.468,-3.969 -0.876,-3.969L-5.337,-3.969L-5.337,0.437C-5.337,0.997 -5.463,1.412 -5.716,1.682C-5.968,1.953 -6.292,2.089 -6.687,2.089C-7.089,2.089 -7.416,1.952 -7.668,1.678C-7.921,1.404 -8.047,0.991 -8.047,0.437L-8.047,-9.855C-8.047,-10.244 -7.989,-10.562 -7.874,-10.808C-7.758,-11.054 -7.577,-11.234 -7.331,-11.346C-7.084,-11.459 -6.77,-11.515 -6.386,-11.515L0,-11.515C0.432,-11.515 0.753,-11.419 0.963,-11.227C1.172,-11.036 1.277,-10.785 1.277,-10.475C1.277,-10.158 1.172,-9.905 0.963,-9.713C0.753,-9.521 0.432,-9.426 0,-9.426" style="fill:rgb(122,122,122);fill-rule:nonzero;"/>
            </g>
        </g>
    </g>
    <g id="window-a" serif:id="window a" transform="matrix(1.25627,0,0,1.25627,0,0)">
        <g transform="matrix(1,0,0,1,234.279,35.0712)">
            <path d="M0,-5.931L-13.505,-10.872C-13.634,-10.919 -13.769,-10.942 -13.901,-10.942C-14.2,-10.942 -14.494,-10.826 -14.713,-10.608C-15.03,-10.293 -15.137,-9.823 -14.986,-9.402L-10.097,4.248C-9.936,4.698 -9.513,5.002 -9.034,5.011C-9.027,5.011 -9.02,5.011 -9.013,5.011C-8.543,5.011 -8.119,4.726 -7.944,4.289L-6.109,-0.277L-2.254,3.62C-2.028,3.848 -1.731,3.962 -1.435,3.962C-1.142,3.962 -0.849,3.851 -0.625,3.629C-0.172,3.181 -0.168,2.452 -0.616,2L-4.496,-1.922L0.041,-3.784C0.481,-3.964 0.765,-4.396 0.756,-4.871C0.747,-5.347 0.446,-5.768 0,-5.931" style="fill-rule:nonzero;"/>
        </g>
        <g transform="matrix(1,0,0,1,50.0531,36.3647)">
            <path d="M0,120.837C-4.411,120.837 -8,117.248 -8,112.837L-8,8C-8,3.588 -4.411,0 0,0L159.819,0C164.23,0 167.819,3.588 167.819,8L167.819,112.837C167.819,117.248 164.23,120.837 159.819,120.837L0,120.837Z" style="fill:white;fill-rule:nonzero;"/>
        </g>
        <path d="M209.873,34.364C215.387,34.364 219.873,38.85 219.873,44.364L219.873,149.201C219.873,154.716 215.387,159.201 209.873,159.201L50.053,159.201C44.539,159.201 40.053,154.716 40.053,149.201L40.053,44.364C40.053,38.85 44.539,34.364 50.053,34.364L209.873,34.364ZM44.053,48.673L44.053,149.201C44.053,152.501 46.753,155.201 50.053,155.201L209.873,155.201C213.173,155.201 215.873,152.501 215.873,149.201L215.873,48.673L44.053,48.673Z" style="fill:rgb(63,63,63);"/>
        <g transform="matrix(1,0,0,1,53.933,40.4417)">
            <path d="M0,6.154C-1.697,6.154 -3.078,4.774 -3.078,3.077C-3.078,1.38 -1.697,0 0,0C1.696,0 3.077,1.38 3.077,3.077C3.077,4.774 1.696,6.154 0,6.154" style="fill:rgb(255,255,248);fill-rule:nonzero;"/>
        </g>
        <g transform="matrix(1,0,0,1,53.9325,47.0955)">
            <path d="M0,-7.154C-1.972,-7.154 -3.577,-5.55 -3.577,-3.577C-3.577,-1.604 -1.972,0 0,0C1.973,0 3.578,-1.604 3.578,-3.577C3.578,-5.55 1.973,-7.154 0,-7.154M0,-6.154C1.423,-6.154 2.578,-5 2.578,-3.577C2.578,-2.154 1.423,-1 0,-1C-1.423,-1 -2.577,-2.154 -2.577,-3.577C-2.577,-5 -1.423,-6.154 0,-6.154" style="fill:rgb(122,122,122);fill-rule:nonzero;"/>
        </g>
        <g transform="matrix(1,0,0,1,66.39,40.4417)">
            <path d="M0,6.154C-1.697,6.154 -3.078,4.774 -3.078,3.077C-3.078,1.38 -1.697,0 0,0C1.696,0 3.077,1.38 3.077,3.077C3.077,4.774 1.696,6.154 0,6.154" style="fill:rgb(255,255,248);fill-rule:nonzero;"/>
        </g>
        <g transform="matrix(1,0,0,1,66.3895,47.0955)">
            <path d="M0,-7.154C-1.973,-7.154 -3.577,-5.55 -3.577,-3.577C-3.577,-1.604 -1.973,0 0,0C1.973,0 3.577,-1.604 3.577,-3.577C3.577,-5.55 1.973,-7.154 0,-7.154M0,-6.154C1.423,-6.154 2.577,-5 2.577,-3.577C2.577,-2.154 1.423,-1 0,-1C-1.423,-1 -2.577,-2.154 -2.577,-3.577C-2.577,-5 -1.423,-6.154 0,-6.154" style="fill:rgb(122,122,122);fill-rule:nonzero;"/>
        </g>
        <g transform="matrix(1,0,0,1,78.4174,40.4417)">
            <path d="M0,6.154C-1.697,6.154 -3.078,4.774 -3.078,3.077C-3.078,1.38 -1.697,0 0,0C1.696,0 3.077,1.38 3.077,3.077C3.077,4.774 1.696,6.154 0,6.154" style="fill:rgb(255,255,248);fill-rule:nonzero;"/>
        </g>
        <g transform="matrix(1,0,0,1,78.4169,47.0955)">
            <path d="M0,-7.154C-1.972,-7.154 -3.577,-5.55 -3.577,-3.577C-3.577,-1.604 -1.972,0 0,0C1.973,0 3.578,-1.604 3.578,-3.577C3.578,-5.55 1.973,-7.154 0,-7.154M0,-6.154C1.423,-6.154 2.578,-5 2.578,-3.577C2.578,-2.154 1.423,-1 0,-1C-1.423,-1 -2.577,-2.154 -2.577,-3.577C-2.577,-5 -1.423,-6.154 0,-6.154" style="fill:rgb(122,122,122);fill-rule:nonzero;"/>
        </g>
        <g transform="matrix(1,0,0,1,55.765,89.7692)">
            <path d="M0,19.182C-1.654,19.182 -3,17.836 -3,16.182L-3,3C-3,1.346 -1.654,0 0,0L105.964,0C107.618,0 108.964,1.346 108.964,3L108.964,16.182C108.964,17.836 107.618,19.182 105.964,19.182L0,19.182Z" style="fill:white;fill-rule:nonzero;"/>
        </g>
        <g transform="matrix(1,0,0,1,161.729,109.951)">
            <path d="M0,-21.182L-105.965,-21.182C-108.17,-21.182 -109.965,-19.388 -109.965,-17.182L-109.965,-4C-109.965,-1.794 -108.17,0 -105.965,0L0,0C2.206,0 4,-1.794 4,-4L4,-17.182C4,-19.388 2.206,-21.182 0,-21.182M0,-19.182C1.1,-19.182 2,-18.282 2,-17.182L2,-4C2,-2.9 1.1,-2 0,-2L-105.965,-2C-107.065,-2 -107.965,-2.9 -107.965,-4L-107.965,-17.182C-107.965,-18.282 -107.065,-19.182 -105.965,-19.182L0,-19.182" style="fill:rgb(63,63,63);fill-rule:nonzero;"/>
        </g>
        <g transform="matrix(1,0,0,1,158.434,95.9234)">
            <path d="M0,6.873L-101.092,6.873C-101.642,6.873 -102.092,6.423 -102.092,5.873L-102.092,1C-102.092,0.45 -101.642,0 -101.092,0L0,0C0.55,0 1,0.45 1,1L1,5.873C1,6.423 0.55,6.873 0,6.873" style="fill:rgb(58,216,250);fill-rule:nonzero;"/>
        </g>
        <g transform="matrix(1,0,0,1,54.9056,117.26)">
            <path d="M0,19.182C-1.654,19.182 -3,17.836 -3,16.182L-3,3C-3,1.346 -1.654,0 0,0L105.965,0C107.619,0 108.965,1.346 108.965,3L108.965,16.182C108.965,17.836 107.619,19.182 105.965,19.182L0,19.182Z" style="fill:white;fill-rule:nonzero;"/>
        </g>
        <g transform="matrix(1,0,0,1,160.87,137.442)">
            <path d="M0,-21.182L-105.965,-21.182C-108.17,-21.182 -109.965,-19.388 -109.965,-17.182L-109.965,-4C-109.965,-1.794 -108.17,0 -105.965,0L0,0C2.206,0 4,-1.794 4,-4L4,-17.182C4,-19.388 2.206,-21.182 0,-21.182M0,-19.182C1.1,-19.182 2,-18.282 2,-17.182L2,-4C2,-2.9 1.1,-2 0,-2L-105.965,-2C-107.065,-2 -107.965,-2.9 -107.965,-4L-107.965,-17.182C-107.965,-18.282 -107.065,-19.182 -105.965,-19.182L0,-19.182" style="fill:rgb(63,63,63);fill-rule:nonzero;"/>
        </g>
        <g transform="matrix(1,0,0,1,81.1146,119.978)">
            <path d="M0,13.746L-25.491,13.746C-26.041,13.746 -26.491,13.296 -26.491,12.746L-26.491,1C-26.491,0.451 -26.041,0 -25.491,0L0,0C0.55,0 1,0.451 1,1L1,12.746C1,13.296 0.55,13.746 0,13.746" style="fill:rgb(63,63,63);fill-rule:nonzero;"/>
        </g>
        <g transform="matrix(1,0,0,1,-275.418,-97.0273)">
            <g opacity="0.360001">
                <g transform="matrix(1,0,0,1,335.926,226.748)">
                    <path d="M0,-5.26L-1.007,-5.26L-1.007,-3.005L0,-3.005C0.353,-3.005 0.647,-3.042 0.883,-3.116C1.12,-3.19 1.3,-3.31 1.424,-3.478C1.549,-3.646 1.611,-3.866 1.611,-4.137C1.611,-4.463 1.515,-4.728 1.324,-4.933C1.109,-5.151 0.668,-5.26 0,-5.26M0.362,-1.878L-1.007,-1.878L-1.007,0.212C-1.007,0.51 -1.077,0.737 -1.218,0.891C-1.359,1.046 -1.537,1.123 -1.752,1.123C-1.977,1.123 -2.158,1.046 -2.295,0.894C-2.433,0.741 -2.502,0.517 -2.502,0.221L-2.502,-5.467C-2.502,-5.796 -2.426,-6.031 -2.275,-6.171C-2.125,-6.312 -1.884,-6.383 -1.556,-6.383L0.362,-6.383C0.93,-6.383 1.366,-6.339 1.671,-6.252C1.973,-6.168 2.234,-6.029 2.454,-5.834C2.674,-5.639 2.841,-5.401 2.955,-5.119C3.069,-4.837 3.126,-4.52 3.126,-4.168C3.126,-3.416 2.895,-2.846 2.431,-2.459C1.968,-2.071 1.278,-1.878 0.362,-1.878" style="fill:white;fill-rule:nonzero;"/>
                </g>
                <g transform="matrix(1,0,0,1,341.805,226.562)">
                    <path d="M0,-5.014L0,-0.005L1.133,-0.005C1.381,-0.005 1.576,-0.012 1.717,-0.025C1.857,-0.039 2.003,-0.072 2.154,-0.126C2.306,-0.18 2.437,-0.255 2.547,-0.352C3.047,-0.775 3.297,-1.504 3.297,-2.537C3.297,-3.265 3.188,-3.811 2.967,-4.173C2.748,-4.535 2.477,-4.766 2.154,-4.866C1.833,-4.964 1.443,-5.014 0.987,-5.014L0,-5.014ZM-0.579,-6.197L1.369,-6.197C1.876,-6.197 2.311,-6.15 2.673,-6.056C3.036,-5.962 3.364,-5.785 3.66,-5.527C4.428,-4.869 4.812,-3.869 4.812,-2.527C4.812,-2.084 4.774,-1.68 4.697,-1.314C4.619,-0.948 4.5,-0.618 4.339,-0.325C4.178,-0.031 3.972,0.232 3.72,0.463C3.522,0.641 3.306,0.783 3.071,0.891C2.836,0.998 2.583,1.074 2.313,1.117C2.043,1.161 1.738,1.183 1.399,1.183L-0.549,1.183C-0.82,1.183 -1.025,1.142 -1.163,1.059C-1.3,0.977 -1.39,0.861 -1.432,0.712C-1.474,0.563 -1.495,0.369 -1.495,0.131L-1.495,-5.281C-1.495,-5.603 -1.423,-5.836 -1.278,-5.98C-1.134,-6.125 -0.901,-6.197 -0.579,-6.197" style="fill:white;fill-rule:nonzero;"/>
                </g>
                <g transform="matrix(1,0,0,1,352.341,226.718)">
                    <path d="M0,-5.2L-2.945,-5.2L-2.945,-3.313L-0.483,-3.313C-0.255,-3.313 -0.084,-3.262 0.028,-3.159C0.14,-3.056 0.196,-2.92 0.196,-2.749C0.196,-2.577 0.139,-2.442 0.025,-2.341C-0.089,-2.241 -0.258,-2.19 -0.483,-2.19L-2.945,-2.19L-2.945,0.241C-2.945,0.55 -3.014,0.779 -3.153,0.928C-3.293,1.078 -3.472,1.153 -3.689,1.153C-3.911,1.153 -4.091,1.077 -4.231,0.926C-4.37,0.775 -4.439,0.547 -4.439,0.241L-4.439,-5.437C-4.439,-5.652 -4.408,-5.827 -4.344,-5.963C-4.28,-6.099 -4.181,-6.198 -4.044,-6.26C-3.909,-6.322 -3.735,-6.353 -3.523,-6.353L0,-6.353C0.238,-6.353 0.416,-6.3 0.531,-6.195C0.647,-6.089 0.705,-5.95 0.705,-5.779C0.705,-5.605 0.647,-5.465 0.531,-5.359C0.416,-5.253 0.238,-5.2 0,-5.2" style="fill:white;fill-rule:nonzero;"/>
                </g>
            </g>
        </g>
        <g transform="matrix(1,0,0,1,172.509,89.7692)">
            <path d="M0,19.182C-1.654,19.182 -3,17.836 -3,16.182L-3,3C-3,1.346 -1.654,0 0,0L23.49,0C25.145,0 26.49,1.346 26.49,3L26.49,16.182C26.49,17.836 25.145,19.182 23.49,19.182L0,19.182Z" style="fill:rgb(255,255,248);fill-rule:nonzero;"/>
        </g>
        <g transform="matrix(1,0,0,1,196,109.951)">
            <path d="M0,-21.182L-23.491,-21.182C-25.697,-21.182 -27.491,-19.388 -27.491,-17.182L-27.491,-4C-27.491,-1.794 -25.697,0 -23.491,0L0,0C2.206,0 4,-1.794 4,-4L4,-17.182C4,-19.388 2.206,-21.182 0,-21.182M0,-19.182C1.1,-19.182 2,-18.282 2,-17.182L2,-4C2,-2.9 1.1,-2 0,-2L-23.491,-2C-24.591,-2 -25.491,-2.9 -25.491,-4L-25.491,-17.182C-25.491,-18.282 -24.591,-19.182 -23.491,-19.182L0,-19.182" style="fill:rgb(63,63,63);fill-rule:nonzero;"/>
        </g>
        <g transform="matrix(1,0,0,1,195.282,92.487)">
            <path d="M0,13.746L-22.055,13.746C-22.605,13.746 -23.055,13.296 -23.055,12.746L-23.055,1C-23.055,0.451 -22.605,0 -22.055,0L0,0C0.55,0 1,0.451 1,1L1,12.746C1,13.296 0.55,13.746 0,13.746" style="fill:rgb(58,216,250);fill-rule:nonzero;"/>
        </g>
        <g transform="matrix(1,0,0,1,181.491,98.8471)">
            <path d="M0,1.379L0,2.794C0,2.981 -0.019,3.131 -0.055,3.244C-0.092,3.357 -0.16,3.458 -0.259,3.548C-0.358,3.639 -0.485,3.726 -0.639,3.81C-1.085,4.052 -1.515,4.228 -1.928,4.339C-2.341,4.449 -2.791,4.505 -3.277,4.505C-3.844,4.505 -4.361,4.418 -4.827,4.243C-5.294,4.068 -5.691,3.815 -6.021,3.483C-6.349,3.151 -6.602,2.748 -6.778,2.275C-6.954,1.802 -7.042,1.273 -7.042,0.689C-7.042,0.115 -6.957,-0.41 -6.786,-0.886C-6.614,-1.363 -6.363,-1.767 -6.03,-2.1C-5.698,-2.432 -5.294,-2.686 -4.817,-2.862C-4.341,-3.038 -3.8,-3.126 -3.196,-3.126C-2.7,-3.126 -2.26,-3.06 -1.877,-2.928C-1.495,-2.795 -1.185,-2.628 -0.946,-2.427C-0.708,-2.225 -0.528,-2.012 -0.408,-1.788C-0.287,-1.562 -0.227,-1.363 -0.227,-1.188C-0.227,-1 -0.296,-0.84 -0.436,-0.707C-0.575,-0.575 -0.742,-0.509 -0.936,-0.509C-1.043,-0.509 -1.147,-0.534 -1.246,-0.584C-1.345,-0.635 -1.428,-0.705 -1.495,-0.796C-1.68,-1.084 -1.835,-1.303 -1.963,-1.45C-2.091,-1.598 -2.263,-1.722 -2.479,-1.823C-2.696,-1.923 -2.972,-1.974 -3.307,-1.974C-3.653,-1.974 -3.961,-1.914 -4.233,-1.795C-4.505,-1.676 -4.738,-1.503 -4.931,-1.276C-5.124,-1.05 -5.271,-0.772 -5.374,-0.443C-5.476,-0.115 -5.527,0.25 -5.527,0.649C-5.527,1.515 -5.328,2.181 -4.931,2.648C-4.533,3.114 -3.979,3.347 -3.267,3.347C-2.921,3.347 -2.597,3.302 -2.293,3.211C-1.989,3.121 -1.681,2.991 -1.369,2.823L-1.369,1.626L-2.527,1.626C-2.806,1.626 -3.016,1.584 -3.159,1.5C-3.301,1.416 -3.373,1.273 -3.373,1.072C-3.373,0.907 -3.313,0.772 -3.194,0.664C-3.075,0.557 -2.913,0.503 -2.708,0.503L-1.012,0.503C-0.804,0.503 -0.627,0.522 -0.483,0.558C-0.339,0.595 -0.222,0.677 -0.133,0.805C-0.044,0.933 0,1.124 0,1.379" style="fill:white;fill-rule:nonzero;"/>
        </g>
        <g transform="matrix(1,0,0,1,188.286,99.5572)">
            <path d="M0,-0.041C0,-0.581 -0.087,-1.049 -0.262,-1.445C-0.436,-1.841 -0.685,-2.141 -1.009,-2.344C-1.333,-2.547 -1.705,-2.648 -2.124,-2.648C-2.423,-2.648 -2.699,-2.592 -2.952,-2.48C-3.206,-2.367 -3.424,-2.204 -3.606,-1.989C-3.79,-1.774 -3.934,-1.5 -4.04,-1.166C-4.145,-0.832 -4.198,-0.457 -4.198,-0.041C-4.198,0.378 -4.145,0.758 -4.04,1.097C-3.934,1.436 -3.784,1.717 -3.591,1.94C-3.398,2.163 -3.177,2.33 -2.927,2.441C-2.677,2.551 -2.402,2.607 -2.104,2.607C-1.721,2.607 -1.37,2.511 -1.049,2.32C-0.729,2.128 -0.474,1.834 -0.284,1.434C-0.095,1.035 0,0.543 0,-0.041M-2.124,-3.836C-1.359,-3.836 -0.702,-3.681 -0.153,-3.371C0.396,-3.061 0.811,-2.619 1.093,-2.047C1.375,-1.475 1.516,-0.803 1.516,-0.031C1.516,0.54 1.438,1.058 1.284,1.524C1.129,1.991 0.898,2.396 0.589,2.738C0.28,3.08 -0.099,3.342 -0.548,3.523C-0.998,3.704 -1.513,3.795 -2.094,3.795C-2.671,3.795 -3.188,3.702 -3.644,3.516C-4.101,3.329 -4.481,3.066 -4.787,2.728C-5.092,2.389 -5.323,1.981 -5.479,1.504C-5.635,1.028 -5.713,0.513 -5.713,-0.041C-5.713,-0.608 -5.632,-1.128 -5.469,-1.602C-5.306,-2.075 -5.07,-2.478 -4.762,-2.81C-4.453,-3.142 -4.077,-3.396 -3.634,-3.572C-3.191,-3.749 -2.688,-3.836 -2.124,-3.836" style="fill:white;fill-rule:nonzero;"/>
        </g>
        <g transform="matrix(1,0,0,1,191.996,95.7208)">
            <path d="M0,7.621C-0.205,7.621 -0.383,7.555 -0.536,7.422C-0.688,7.289 -0.765,7.104 -0.765,6.866C-0.765,6.658 -0.692,6.481 -0.546,6.335C-0.4,6.189 -0.221,6.116 -0.01,6.116C0.202,6.116 0.382,6.189 0.531,6.335C0.681,6.481 0.755,6.658 0.755,6.866C0.755,7.101 0.68,7.286 0.529,7.42C0.378,7.554 0.202,7.621 0,7.621M-0.559,4.309L-0.72,1.898C-0.75,1.428 -0.765,1.091 -0.765,0.886C-0.765,0.607 -0.692,0.39 -0.546,0.234C-0.4,0.078 -0.208,0 0.03,0C0.319,0 0.512,0.1 0.609,0.299C0.707,0.499 0.755,0.787 0.755,1.163C0.755,1.384 0.744,1.609 0.72,1.837L0.503,4.319C0.48,4.614 0.43,4.841 0.353,4.998C0.275,5.156 0.148,5.235 -0.03,5.235C-0.211,5.235 -0.337,5.159 -0.408,5.006C-0.478,4.853 -0.528,4.621 -0.559,4.309" style="fill:white;fill-rule:nonzero;"/>
        </g>
        <g transform="matrix(1,0,0,1,211.942,116.685)">
            <path d="M0,-5.931L-13.505,-10.872C-13.634,-10.919 -13.768,-10.942 -13.901,-10.942C-14.2,-10.942 -14.493,-10.826 -14.713,-10.607C-15.03,-10.292 -15.136,-9.823 -14.985,-9.402L-10.097,4.248C-9.936,4.698 -9.513,5.002 -9.034,5.011L-9.012,5.011C-8.542,5.011 -8.119,4.726 -7.943,4.289L-6.109,-0.277L-2.253,3.62C-2.028,3.848 -1.731,3.962 -1.435,3.962C-1.142,3.962 -0.849,3.851 -0.624,3.629C-0.172,3.182 -0.168,2.452 -0.615,2L-4.495,-1.922L0.042,-3.784C0.481,-3.964 0.765,-4.396 0.756,-4.871C0.747,-5.347 0.446,-5.767 0,-5.931" style="fill-rule:nonzero;"/>
        </g>
        <g transform="matrix(1,0,0,1,143.708,68.4327)">
            <path d="M0,0C0,7.591 -6.154,13.746 -13.746,13.746C-21.337,13.746 -27.491,7.591 -27.491,0C-27.491,-7.592 -21.337,-13.746 -13.746,-13.746C-6.154,-13.746 0,-7.592 0,0" style="fill:rgb(63,63,63);fill-rule:nonzero;"/>
        </g>
    </g>
</svg>
