<?xml version="1.0" encoding="UTF-8" standalone="no"?>
<!DOCTYPE svg PUBLIC "-//W3C//DTD SVG 1.1//EN" "http://www.w3.org/Graphics/SVG/1.1/DTD/svg11.dtd">
<svg width="100%" height="100%" viewBox="0 0 210 200" version="1.1" xmlns="http://www.w3.org/2000/svg" xmlns:xlink="http://www.w3.org/1999/xlink" xml:space="preserve" xmlns:serif="http://www.serif.com/" style="fill-rule:evenodd;clip-rule:evenodd;stroke-linecap:square;stroke-linejoin:bevel;stroke-miterlimit:10;">
    <g id="sharing" transform="matrix(1.19314,0,0,1.19314,-1007.78,-106.189)">
        <g transform="matrix(1,0,0,1,994.125,95.443)">
            <path d="M0,149.913L-110.556,149.913C-114.974,149.913 -118.556,146.331 -118.556,141.913L-118.556,0L-8,0C-3.582,0 0,3.582 0,8L0,149.913Z" style="fill:rgb(63,63,63);fill-rule:nonzero;"/>
        </g>
        <g transform="matrix(1,0,0,1,896.189,154.969)">
            <path d="M0,33.687C-2.291,33.687 -4.155,31.823 -4.155,29.532L-4.155,0C-1.597,4.384 3.158,7.336 8.591,7.336L81.614,7.336C83.905,7.336 85.769,9.2 85.769,11.491L85.769,29.532C85.769,31.823 83.905,33.687 81.614,33.687L0,33.687Z" style="fill:white;fill-rule:nonzero;"/>
        </g>
        <g transform="matrix(1,0,0,1,891.034,189.656)">
            <path d="M0,-42.096L0,-5.155C0,-2.32 2.319,0 5.154,0L86.769,0C89.604,0 91.923,-2.32 91.923,-5.155L91.923,-23.196C91.923,-26.031 89.604,-28.35 86.769,-28.35L13.746,-28.35C6.154,-28.35 0,-34.504 0,-42.096M2,-31.62C4.885,-28.388 9.082,-26.35 13.746,-26.35L86.769,-26.35C88.508,-26.35 89.923,-24.935 89.923,-23.196L89.923,-5.155C89.923,-3.415 88.508,-2 86.769,-2L5.154,-2C3.415,-2 2,-3.415 2,-5.155L2,-14.605L2,-23.196L2,-28.35L2,-31.62" style="fill:rgb(166,166,166);fill-rule:nonzero;"/>
        </g>
        <g transform="matrix(1,0,0,1,913.477,175.695)">
            <path d="M0,0C0,4.745 -3.847,8.591 -8.591,8.591C-13.336,8.591 -17.182,4.745 -17.182,0C-17.182,-4.745 -13.336,-8.591 -8.591,-8.591C-3.847,-8.591 0,-4.745 0,0" style="fill:rgb(166,166,166);fill-rule:nonzero;"/>
        </g>
        <g transform="matrix(1,0,0,1,904.887,176.196)">
            <path d="M0,6.302C-3.688,6.302 -6.803,4.859 -6.803,3.151C-6.803,1.443 -3.688,0 0,0C3.687,0 6.802,1.443 6.802,3.151C6.802,4.859 3.687,6.302 0,6.302" style="fill:white;fill-rule:nonzero;"/>
        </g>
        <g transform="matrix(1,0,0,1,904.886,182.997)">
            <path d="M0,-7.302C-4.033,-7.302 -7.302,-5.667 -7.302,-3.651C-7.302,-1.635 -4.033,0 0,0C4.033,0 7.303,-1.635 7.303,-3.651C7.303,-5.667 4.033,-7.302 0,-7.302M0,-6.302C3.607,-6.302 6.303,-4.903 6.303,-3.651C6.303,-2.4 3.607,-1 0,-1C-3.607,-1 -6.302,-2.4 -6.302,-3.651C-6.302,-4.903 -3.607,-6.302 0,-6.302" style="fill:rgb(219,219,219);fill-rule:nonzero;"/>
        </g>
        <g transform="matrix(1,0,0,1,904.887,168.893)">
            <path d="M0,8.584C-2.367,8.584 -4.293,6.659 -4.293,4.292C-4.293,1.925 -2.367,0 0,0C2.366,0 4.292,1.925 4.292,4.292C4.292,6.659 2.366,8.584 0,8.584" style="fill:white;fill-rule:nonzero;"/>
        </g>
        <g transform="matrix(1,0,0,1,904.886,177.977)">
            <path d="M0,-9.584C-2.646,-9.584 -4.792,-7.438 -4.792,-4.792C-4.792,-2.146 -2.646,0 0,0C2.647,0 4.792,-2.146 4.792,-4.792C4.792,-7.438 2.647,-9.584 0,-9.584M0,-8.584C2.091,-8.584 3.792,-6.883 3.792,-4.792C3.792,-2.701 2.091,-1 0,-1C-2.091,-1 -3.792,-2.701 -3.792,-4.792C-3.792,-6.883 -2.091,-8.584 0,-8.584" style="fill:rgb(219,219,219);fill-rule:nonzero;"/>
        </g>
        <g transform="matrix(-1,-0,0,1,1898.9,-458.489)">
            <rect x="923.679" y="625.808" width="51.546" height="6.873" style="fill:rgb(204,204,204);"/>
        </g>
        <g transform="matrix(-1,-0,0,1,1898.9,-439.589)">
            <rect x="923.679" y="616.358" width="51.546" height="6.873" style="fill:rgb(204,204,204);"/>
        </g>
        <g transform="matrix(1,0,0,1,863.542,90.5)">
            <path d="M0,33.082C-2.015,33.082 -3.654,31.443 -3.654,29.428L-3.654,12.246C-3.654,7.235 -6.085,2.781 -9.828,0L81.614,0C83.63,0 85.27,1.64 85.27,3.655L85.27,29.428C85.27,31.443 83.63,33.082 81.614,33.082L0,33.082Z" style="fill:white;fill-rule:nonzero;"/>
        </g>
        <g transform="matrix(1,0,0,1,945.157,125.082)">
            <path d="M0,-36.082L-86.769,-36.082L-100.515,-36.082C-92.923,-36.082 -86.769,-29.928 -86.769,-22.336L-86.769,-5.154C-86.769,-2.319 -84.45,0 -81.614,0L0,0C2.835,0 5.155,-2.319 5.155,-5.154L5.155,-30.927C5.155,-33.763 2.835,-36.082 0,-36.082M0,-33.082C1.188,-33.082 2.155,-32.116 2.155,-30.927L2.155,-5.154C2.155,-3.966 1.188,-3 0,-3L-81.614,-3C-82.803,-3 -83.769,-3.966 -83.769,-5.154L-83.769,-22.336C-83.769,-26.423 -85.24,-30.172 -87.681,-33.082L0,-33.082" style="fill:rgb(63,63,63);fill-rule:nonzero;"/>
        </g>
        <g transform="matrix(1,0,0,1,883.409,103.39)">
            <path d="M0,0C0,4.745 -3.846,8.591 -8.591,8.591C-13.335,8.591 -17.182,4.745 -17.182,0C-17.182,-4.745 -13.335,-8.591 -8.591,-8.591C-3.846,-8.591 0,-4.745 0,0" style="fill:rgb(63,63,63);fill-rule:nonzero;"/>
        </g>
        <g transform="matrix(1,0,0,1,874.818,103.89)">
            <path d="M0,6.302C-3.688,6.302 -6.803,4.859 -6.803,3.151C-6.803,1.443 -3.688,0 0,0C3.687,0 6.802,1.443 6.802,3.151C6.802,4.859 3.687,6.302 0,6.302" style="fill:rgb(242,242,242);fill-rule:nonzero;"/>
        </g>
        <g transform="matrix(1,0,0,1,874.818,110.692)">
            <path d="M0,-7.302C-4.033,-7.302 -7.302,-5.668 -7.302,-3.651C-7.302,-1.635 -4.033,0 0,0C4.033,0 7.302,-1.635 7.302,-3.651C7.302,-5.668 4.033,-7.302 0,-7.302M0,-6.302C3.607,-6.302 6.302,-4.903 6.302,-3.651C6.302,-2.4 3.607,-1 0,-1C-3.607,-1 -6.302,-2.4 -6.302,-3.651C-6.302,-4.903 -3.607,-6.302 0,-6.302" style="fill:rgb(63,63,63);fill-rule:nonzero;"/>
        </g>
        <g transform="matrix(1,0,0,1,874.818,96.5879)">
            <path d="M0,8.584C-2.367,8.584 -4.293,6.659 -4.293,4.292C-4.293,1.925 -2.367,0 0,0C2.366,0 4.292,1.925 4.292,4.292C4.292,6.659 2.366,8.584 0,8.584" style="fill:rgb(242,242,242);fill-rule:nonzero;"/>
        </g>
        <g transform="matrix(1,0,0,1,874.818,105.671)">
            <path d="M0,-9.584C-2.646,-9.584 -4.792,-7.438 -4.792,-4.792C-4.792,-2.145 -2.646,0 0,0C2.647,0 4.792,-2.145 4.792,-4.792C4.792,-7.438 2.647,-9.584 0,-9.584M0,-8.584C2.091,-8.584 3.792,-6.883 3.792,-4.792C3.792,-2.701 2.091,-1 0,-1C-2.091,-1 -3.792,-2.701 -3.792,-4.792C-3.792,-6.883 -2.091,-8.584 0,-8.584" style="fill:rgb(63,63,63);fill-rule:nonzero;"/>
        </g>
        <g transform="matrix(-1,-0,0,1,1833.61,-604.819)">
            <rect x="891.034" y="698.973" width="51.546" height="6.873" style="fill:rgb(204,204,204);"/>
        </g>
        <g transform="matrix(-1,-0,0,1,1833.61,-585.917)">
            <rect x="891.034" y="689.522" width="51.546" height="6.873" style="fill:rgb(204,204,204);"/>
        </g>
        <g transform="matrix(-1,-0,0,1,1833.61,-567.017)">
            <rect x="891.034" y="680.072" width="51.546" height="6.873" style="fill:rgb(204,204,204);"/>
        </g>
        <g transform="matrix(1,0,0,1,982.742,190.699)">
            <path d="M0,20.182C-10.476,20.182 -18.682,15.749 -18.682,10.091C-18.682,4.432 -10.476,0 0,0C10.477,0 18.683,4.432 18.683,10.091C18.683,15.749 10.477,20.182 0,20.182" style="fill:white;fill-rule:nonzero;"/>
        </g>
        <g transform="matrix(1,0,0,1,982.743,212.381)">
            <path d="M0,-23.182C-11.506,-23.182 -20.182,-18.199 -20.182,-11.591C-20.182,-4.983 -11.506,0 0,0C11.505,0 20.182,-4.983 20.182,-11.591C20.182,-18.199 11.505,-23.182 0,-23.182M0,-20.182C9.489,-20.182 17.182,-16.335 17.182,-11.591C17.182,-6.846 9.489,-3 0,-3C-9.49,-3 -17.182,-6.846 -17.182,-11.591C-17.182,-16.335 -9.49,-20.182 0,-20.182" style="fill:rgb(122,122,122);fill-rule:nonzero;"/>
        </g>
        <g transform="matrix(1,0,0,1,982.742,173.518)">
            <path d="M0,25.551C-7.044,25.551 -12.775,19.82 -12.775,12.775C-12.775,5.731 -7.044,0 0,0C7.044,0 12.775,5.731 12.775,12.775C12.775,19.82 7.044,25.551 0,25.551" style="fill:white;fill-rule:nonzero;"/>
        </g>
        <g transform="matrix(1,0,0,1,982.743,200.569)">
            <path d="M0,-28.551C-7.872,-28.551 -14.276,-22.147 -14.276,-14.276C-14.276,-6.404 -7.872,0 0,0C7.872,0 14.275,-6.404 14.275,-14.276C14.275,-22.147 7.872,-28.551 0,-28.551M0,-25.551C6.227,-25.551 11.275,-20.503 11.275,-14.276C11.275,-8.048 6.227,-3 0,-3C-6.228,-3 -11.276,-8.048 -11.276,-14.276C-11.276,-20.503 -6.228,-25.551 0,-25.551" style="fill:rgb(122,122,122);fill-rule:nonzero;"/>
        </g>
        <g transform="matrix(1,0,0,1,1000.35,216.043)">
            <path d="M0,20.182C-10.476,20.182 -18.682,15.749 -18.682,10.091C-18.682,4.433 -10.476,0 0,0C10.477,0 18.683,4.433 18.683,10.091C18.683,15.749 10.477,20.182 0,20.182" style="fill:white;fill-rule:nonzero;"/>
        </g>
        <g transform="matrix(1,0,0,1,1000.35,237.725)">
            <path d="M0,-23.182C-11.506,-23.182 -20.182,-18.199 -20.182,-11.591C-20.182,-4.983 -11.506,0 0,0C11.505,0 20.182,-4.983 20.182,-11.591C20.182,-18.199 11.505,-23.182 0,-23.182M0,-20.182C9.489,-20.182 17.182,-16.336 17.182,-11.591C17.182,-6.847 9.489,-3 0,-3C-9.489,-3 -17.182,-6.847 -17.182,-11.591C-17.182,-16.336 -9.489,-20.182 0,-20.182" style="fill:rgb(122,122,122);fill-rule:nonzero;"/>
        </g>
        <g transform="matrix(1,0,0,1,1000.35,198.861)">
            <path d="M0,25.551C-7.044,25.551 -12.775,19.82 -12.775,12.776C-12.775,5.731 -7.044,0 0,0C7.045,0 12.776,5.731 12.776,12.776C12.776,19.82 7.045,25.551 0,25.551" style="fill:white;fill-rule:nonzero;"/>
        </g>
        <g transform="matrix(1,0,0,1,1000.35,225.912)">
            <path d="M0,-28.551C-7.872,-28.551 -14.276,-22.147 -14.276,-14.275C-14.276,-6.404 -7.872,0 0,0C7.872,0 14.276,-6.404 14.276,-14.275C14.276,-22.147 7.872,-28.551 0,-28.551M0,-25.551C6.228,-25.551 11.276,-20.503 11.276,-14.275C11.276,-8.048 6.228,-3 0,-3C-6.228,-3 -11.276,-8.048 -11.276,-14.275C-11.276,-20.503 -6.228,-25.551 0,-25.551" style="fill:rgb(122,122,122);fill-rule:nonzero;"/>
        </g>
        <g transform="matrix(1,0,0,1,984.89,234.943)">
            <path d="M0,20.182C-10.476,20.182 -18.682,15.749 -18.682,10.091C-18.682,4.432 -10.476,0 0,0C10.477,0 18.683,4.432 18.683,10.091C18.683,15.749 10.477,20.182 0,20.182" style="fill:white;fill-rule:nonzero;"/>
        </g>
        <g transform="matrix(1,0,0,1,984.89,256.625)">
            <path d="M0,-23.182C-11.505,-23.182 -20.182,-18.199 -20.182,-11.591C-20.182,-4.983 -11.505,0 0,0C11.506,0 20.182,-4.983 20.182,-11.591C20.182,-18.199 11.506,-23.182 0,-23.182M0,-20.182C9.489,-20.182 17.182,-16.336 17.182,-11.591C17.182,-6.846 9.489,-3 0,-3C-9.489,-3 -17.182,-6.846 -17.182,-11.591C-17.182,-16.336 -9.489,-20.182 0,-20.182" style="fill:rgb(122,122,122);fill-rule:nonzero;"/>
        </g>
        <g transform="matrix(1,0,0,1,984.89,217.762)">
            <path d="M0,25.551C-7.044,25.551 -12.775,19.82 -12.775,12.775C-12.775,5.731 -7.044,0 0,0C7.045,0 12.776,5.731 12.776,12.775C12.776,19.82 7.045,25.551 0,25.551" style="fill:white;fill-rule:nonzero;"/>
        </g>
        <g transform="matrix(1,0,0,1,984.89,244.813)">
            <path d="M0,-28.552C-7.872,-28.552 -14.275,-22.148 -14.275,-14.276C-14.275,-6.405 -7.872,0 0,0C7.872,0 14.276,-6.405 14.276,-14.276C14.276,-22.148 7.872,-28.552 0,-28.552M0,-25.552C6.228,-25.552 11.276,-20.503 11.276,-14.276C11.276,-8.049 6.228,-3 0,-3C-6.228,-3 -11.275,-8.049 -11.275,-14.276C-11.275,-20.503 -6.228,-25.552 0,-25.552" style="fill:rgb(122,122,122);fill-rule:nonzero;"/>
        </g>
        <g transform="matrix(1,0,0,1,947.384,238.699)">
            <path d="M0,-46.392L-9.18,-46.392C-10.092,-46.392 -10.966,-46.03 -11.61,-45.385L-25.061,-31.934C-25.706,-31.29 -26.067,-30.416 -26.067,-29.505L-26.067,-3.437C-26.067,-1.539 -24.529,0 -22.631,0L13.451,0C15.349,0 16.887,-1.539 16.887,-3.437L16.887,-29.505C16.887,-30.416 16.525,-31.29 15.881,-31.934L2.43,-45.385C1.786,-46.03 0.912,-46.392 0,-46.392" style="fill:white;fill-rule:nonzero;"/>
        </g>
        <g transform="matrix(1,0,0,1,921.317,223.449)">
            <path d="M0,-15.464L15.463,0L27.491,0L42.955,-15.464" style="fill:none;stroke:rgb(63,63,63);stroke-width:2px;"/>
        </g>
        <g transform="matrix(1,0,0,1,921.317,223.449)">
            <path d="M0,15.464L15.463,0L27.491,0L42.955,15.464" style="fill:none;stroke:rgb(63,63,63);stroke-width:2px;"/>
        </g>
        <g transform="matrix(1,0,0,1,958.043,218.723)">
            <path d="M0,-24.054C0,-25.952 -1.538,-27.491 -3.436,-27.491L-27.491,-27.491C-29.389,-27.491 -30.927,-25.952 -30.927,-24.054L-30.927,-6.013L-21.477,3.437L-9.45,3.437L0,-6.013L0,-24.054Z" style="fill:white;fill-rule:nonzero;stroke:rgb(63,63,63);stroke-width:3px;stroke-linecap:butt;stroke-linejoin:miter;"/>
        </g>
        <g transform="matrix(1,0,0,1,938.468,196.907)">
            <path d="M0,10.823L-1.106,11.929C-1.422,12.245 -1.896,12.245 -2.212,11.929L-4.187,9.954C-5.451,8.69 -6.162,7.031 -6.162,5.214C-6.162,1.58 -3.16,-1.422 0.474,-1.422C2.212,-1.422 3.95,-0.711 5.214,0.553L7.188,2.529C7.505,2.844 7.505,3.318 7.188,3.635L6.083,4.74C5.767,5.056 5.292,5.056 4.977,4.74L3.002,2.765C2.37,2.134 1.501,1.739 0.553,1.739C-1.343,1.739 -2.923,3.318 -2.923,5.214C-2.923,6.162 -2.528,7.031 -1.896,7.663L0.079,9.638C0.237,10.033 0.237,10.507 0,10.823" style="fill:rgb(189,28,43);fill-rule:nonzero;"/>
        </g>
        <g transform="matrix(1,0,0,1,938.863,208.441)">
            <path d="M0,-5.214L1.106,-6.32C1.422,-6.636 1.896,-6.636 2.212,-6.32L7.426,-1.106C7.742,-0.79 7.742,-0.316 7.426,0L6.32,1.106C6.004,1.422 5.53,1.422 5.214,1.106L0,-4.108C-0.316,-4.424 -0.316,-4.898 0,-5.214" style="fill:rgb(189,28,43);fill-rule:nonzero;"/>
        </g>
        <g transform="matrix(1,0,0,1,946.21,202.516)">
            <path d="M0,13.588C-1.738,13.588 -3.476,12.877 -4.74,11.613L-6.715,9.638C-7.031,9.322 -7.031,8.848 -6.715,8.532L-5.609,7.426C-5.293,7.11 -4.819,7.11 -4.503,7.426L-2.528,9.401C-1.896,10.033 -1.027,10.428 -0.079,10.428C1.817,10.428 3.397,8.848 3.397,6.952C3.397,6.004 3.002,5.135 2.37,4.503L0.395,2.528C0.079,2.212 0.079,1.738 0.395,1.422L1.501,0.316C1.817,0 2.291,0 2.607,0.316L4.582,2.291C5.846,3.555 6.557,5.214 6.557,7.031C6.636,10.586 3.634,13.588 0,13.588" style="fill:rgb(189,28,43);fill-rule:nonzero;"/>
        </g>
        <g transform="matrix(-1,-0,0,1,1819.87,-372.861)">
            <rect x="901.342" y="584.712" width="17.182" height="3.437" style="fill:white;"/>
        </g>
        <g transform="matrix(-1,-0,0,1,1826.74,-355.679)">
            <rect x="908.215" y="576.121" width="10.309" height="3.437" style="fill:white;"/>
        </g>
        <g transform="matrix(-1,-0,0,1,1816.43,-341.935)">
            <rect x="897.906" y="569.249" width="20.618" height="3.437" style="fill:white;"/>
        </g>
        <g transform="matrix(1,0,0,1,960.522,101.353)">
            <path d="M0,18.182C-1.379,18.182 -2.5,17.06 -2.5,15.682L-2.5,2.5C-2.5,1.121 -1.379,0 0,0L23.491,0C24.87,0 25.991,1.121 25.991,2.5L25.991,15.682C25.991,17.06 24.87,18.182 23.491,18.182L0,18.182Z" style="fill:rgb(255,255,248);fill-rule:nonzero;"/>
        </g>
        <g transform="matrix(1,0,0,1,984.014,120.035)">
            <path d="M0,-19.182L-23.491,-19.182C-25.146,-19.182 -26.491,-17.836 -26.491,-16.182L-26.491,-3C-26.491,-1.346 -25.146,0 -23.491,0L0,0C1.654,0 3,-1.346 3,-3L3,-16.182C3,-17.836 1.654,-19.182 0,-19.182M0,-18.182C1.1,-18.182 2,-17.282 2,-16.182L2,-3C2,-1.9 1.1,-1 0,-1L-23.491,-1C-24.591,-1 -25.491,-1.9 -25.491,-3L-25.491,-16.182C-25.491,-17.282 -24.591,-18.182 -23.491,-18.182L0,-18.182" style="fill:rgb(63,63,63);fill-rule:nonzero;"/>
        </g>
        <g transform="matrix(1,0,0,1,983.296,103.57)">
            <path d="M0,13.746L-22.055,13.746C-22.605,13.746 -23.055,13.296 -23.055,12.746L-23.055,1C-23.055,0.45 -22.605,0 -22.055,0L0,0C0.55,0 1,0.45 1,1L1,12.746C1,13.296 0.55,13.746 0,13.746" style="fill:rgb(208,0,50);fill-rule:nonzero;"/>
        </g>
        <g transform="matrix(1,0,0,1,965.615,109.606)">
            <path d="M0,1.661C0,1.977 -0.077,2.247 -0.231,2.473C-0.385,2.698 -0.612,2.868 -0.913,2.984C-1.213,3.1 -1.579,3.159 -2.009,3.159C-2.42,3.159 -2.773,3.096 -3.066,2.97C-3.36,2.844 -3.577,2.686 -3.717,2.498C-3.856,2.309 -3.926,2.119 -3.926,1.93C-3.926,1.804 -3.881,1.696 -3.792,1.606C-3.703,1.517 -3.59,1.472 -3.453,1.472C-3.332,1.472 -3.24,1.501 -3.176,1.56C-3.111,1.619 -3.05,1.702 -2.991,1.808C-2.874,2.012 -2.733,2.164 -2.569,2.265C-2.406,2.366 -2.183,2.416 -1.9,2.416C-1.671,2.416 -1.483,2.365 -1.336,2.263C-1.189,2.161 -1.116,2.044 -1.116,1.912C-1.116,1.711 -1.192,1.564 -1.345,1.472C-1.497,1.38 -1.748,1.292 -2.098,1.208C-2.492,1.11 -2.813,1.007 -3.06,0.9C-3.308,0.792 -3.506,0.65 -3.654,0.474C-3.802,0.298 -3.876,0.081 -3.876,-0.176C-3.876,-0.406 -3.808,-0.622 -3.67,-0.827C-3.533,-1.031 -3.332,-1.193 -3.064,-1.315C-2.797,-1.437 -2.475,-1.498 -2.098,-1.498C-1.801,-1.498 -1.535,-1.467 -1.298,-1.405C-1.062,-1.344 -0.865,-1.261 -0.707,-1.158C-0.549,-1.054 -0.429,-0.94 -0.346,-0.814C-0.264,-0.688 -0.223,-0.565 -0.223,-0.445C-0.223,-0.314 -0.267,-0.206 -0.354,-0.122C-0.443,-0.038 -0.568,0.004 -0.73,0.004C-0.848,0.004 -0.947,-0.029 -1.03,-0.097C-1.113,-0.164 -1.207,-0.264 -1.313,-0.399C-1.4,-0.511 -1.502,-0.6 -1.619,-0.667C-1.737,-0.735 -1.896,-0.768 -2.098,-0.768C-2.304,-0.768 -2.476,-0.724 -2.613,-0.636C-2.75,-0.547 -2.819,-0.438 -2.819,-0.306C-2.819,-0.186 -2.769,-0.088 -2.668,-0.011C-2.567,0.066 -2.432,0.13 -2.261,0.18C-2.09,0.23 -1.855,0.292 -1.556,0.365C-1.201,0.452 -0.911,0.555 -0.686,0.675C-0.46,0.796 -0.291,0.937 -0.174,1.101C-0.058,1.265 0,1.451 0,1.661" style="fill:white;fill-rule:nonzero;"/>
        </g>
        <g transform="matrix(1,0,0,1,967.274,112.068)">
            <path d="M0,-4.967L0,-3.268C0.146,-3.436 0.288,-3.569 0.426,-3.667C0.564,-3.764 0.717,-3.838 0.885,-3.887C1.053,-3.936 1.233,-3.96 1.426,-3.96C1.717,-3.96 1.975,-3.899 2.2,-3.776C2.426,-3.653 2.602,-3.474 2.731,-3.238C2.812,-3.102 2.867,-2.948 2.895,-2.779C2.923,-2.611 2.937,-2.415 2.937,-2.194L2.937,0C2.937,0.229 2.884,0.402 2.779,0.52C2.674,0.637 2.535,0.696 2.362,0.696C1.984,0.696 1.795,0.464 1.795,0L1.795,-1.934C1.795,-2.3 1.741,-2.582 1.632,-2.779C1.523,-2.977 1.316,-3.075 1.011,-3.075C0.807,-3.075 0.623,-3.017 0.459,-2.901C0.296,-2.785 0.173,-2.626 0.092,-2.425C0.031,-2.254 0,-1.951 0,-1.515L0,0C0,0.226 -0.051,0.399 -0.153,0.518C-0.255,0.637 -0.397,0.696 -0.579,0.696C-0.956,0.696 -1.145,0.464 -1.145,0L-1.145,-4.967C-1.145,-5.199 -1.096,-5.373 -0.996,-5.489C-0.896,-5.606 -0.758,-5.663 -0.579,-5.663C-0.397,-5.663 -0.255,-5.605 -0.153,-5.487C-0.051,-5.37 0,-5.196 0,-4.967" style="fill:white;fill-rule:nonzero;"/>
        </g>
        <g transform="matrix(1,0,0,1,973.732,110.403)">
            <path d="M0,0.058C-0.168,0.12 -0.412,0.185 -0.732,0.253C-1.052,0.322 -1.274,0.372 -1.397,0.404C-1.52,0.436 -1.637,0.499 -1.749,0.593C-1.861,0.686 -1.917,0.817 -1.917,0.985C-1.917,1.159 -1.851,1.306 -1.72,1.428C-1.588,1.55 -1.417,1.61 -1.204,1.61C-0.978,1.61 -0.769,1.561 -0.577,1.461C-0.385,1.362 -0.245,1.234 -0.155,1.078C-0.052,0.904 0,0.619 0,0.222L0,0.058ZM0.076,1.715C-0.201,1.931 -0.469,2.092 -0.728,2.2C-0.987,2.308 -1.276,2.361 -1.598,2.361C-1.892,2.361 -2.15,2.303 -2.372,2.187C-2.594,2.071 -2.766,1.913 -2.886,1.715C-3.006,1.516 -3.066,1.301 -3.066,1.069C-3.066,0.756 -2.967,0.489 -2.769,0.268C-2.57,0.047 -2.297,-0.101 -1.951,-0.177C-1.878,-0.193 -1.698,-0.231 -1.409,-0.29C-1.121,-0.349 -0.875,-0.402 -0.669,-0.451C-0.463,-0.501 -0.24,-0.56 0,-0.63C-0.014,-0.932 -0.075,-1.153 -0.183,-1.295C-0.29,-1.436 -0.513,-1.506 -0.852,-1.506C-1.142,-1.506 -1.361,-1.466 -1.508,-1.385C-1.655,-1.304 -1.781,-1.182 -1.886,-1.02C-1.99,-0.858 -2.064,-0.751 -2.108,-0.699C-2.151,-0.648 -2.244,-0.621 -2.387,-0.621C-2.516,-0.621 -2.627,-0.663 -2.72,-0.745C-2.814,-0.828 -2.861,-0.933 -2.861,-1.062C-2.861,-1.263 -2.79,-1.459 -2.647,-1.649C-2.504,-1.839 -2.282,-1.996 -1.98,-2.119C-1.678,-2.242 -1.302,-2.303 -0.852,-2.303C-0.348,-2.303 0.047,-2.244 0.335,-2.125C0.624,-2.006 0.827,-1.818 0.946,-1.561C1.064,-1.304 1.124,-0.963 1.124,-0.538C1.124,-0.269 1.124,-0.041 1.122,0.146C1.121,0.334 1.119,0.542 1.116,0.771C1.116,0.987 1.151,1.211 1.223,1.445C1.294,1.678 1.33,1.829 1.33,1.895C1.33,2.013 1.274,2.12 1.164,2.216C1.054,2.313 0.928,2.361 0.789,2.361C0.671,2.361 0.555,2.306 0.44,2.196C0.326,2.085 0.204,1.925 0.076,1.715" style="fill:white;fill-rule:nonzero;"/>
        </g>
        <g transform="matrix(1,0,0,1,976.726,109.761)">
            <path d="M0,1.35L0,2.307C0,2.538 -0.055,2.712 -0.164,2.829C-0.273,2.945 -0.411,3.003 -0.579,3.003C-0.744,3.003 -0.88,2.944 -0.986,2.827C-1.092,2.709 -1.146,2.536 -1.146,2.307L-1.146,-0.881C-1.146,-1.397 -0.959,-1.653 -0.587,-1.653C-0.397,-1.653 -0.26,-1.593 -0.176,-1.473C-0.092,-1.353 -0.046,-1.175 -0.038,-0.941C0.099,-1.175 0.24,-1.353 0.384,-1.473C0.527,-1.593 0.72,-1.653 0.96,-1.653C1.201,-1.653 1.435,-1.593 1.661,-1.473C1.888,-1.353 2.001,-1.193 2.001,-0.995C2.001,-0.855 1.953,-0.74 1.856,-0.649C1.76,-0.558 1.656,-0.512 1.543,-0.512C1.501,-0.512 1.4,-0.539 1.239,-0.59C1.079,-0.642 0.937,-0.668 0.813,-0.668C0.646,-0.668 0.509,-0.624 0.402,-0.536C0.296,-0.447 0.214,-0.317 0.155,-0.143C0.096,0.03 0.056,0.236 0.033,0.475C0.011,0.714 0,1.006 0,1.35" style="fill:white;fill-rule:nonzero;"/>
        </g>
        <g transform="matrix(1,0,0,1,979.665,110.797)">
            <path d="M0,-0.73L2.077,-0.73C2.048,-1.122 1.943,-1.415 1.76,-1.609C1.577,-1.803 1.335,-1.9 1.036,-1.9C0.751,-1.9 0.517,-1.802 0.333,-1.605C0.15,-1.408 0.039,-1.116 0,-0.73M2.24,-0.08L0,-0.08C0.003,0.18 0.056,0.41 0.158,0.608C0.259,0.807 0.396,0.956 0.564,1.057C0.733,1.158 0.92,1.208 1.125,1.208C1.262,1.208 1.387,1.192 1.5,1.16C1.613,1.127 1.723,1.077 1.829,1.009C1.936,0.94 2.034,0.867 2.123,0.789C2.212,0.71 2.328,0.604 2.471,0.47C2.53,0.419 2.614,0.394 2.723,0.394C2.84,0.394 2.936,0.426 3.008,0.491C3.081,0.555 3.117,0.646 3.117,0.763C3.117,0.867 3.076,0.988 2.995,1.126C2.915,1.265 2.792,1.397 2.628,1.525C2.465,1.652 2.259,1.757 2.012,1.841C1.764,1.925 1.48,1.967 1.158,1.967C0.423,1.967 -0.149,1.757 -0.558,1.338C-0.966,0.918 -1.17,0.349 -1.17,-0.369C-1.17,-0.708 -1.12,-1.022 -1.019,-1.311C-0.918,-1.601 -0.771,-1.849 -0.579,-2.056C-0.386,-2.262 -0.148,-2.421 0.134,-2.532C0.417,-2.642 0.73,-2.697 1.074,-2.697C1.521,-2.697 1.906,-2.603 2.226,-2.414C2.546,-2.226 2.786,-1.981 2.945,-1.682C3.104,-1.383 3.184,-1.078 3.184,-0.768C3.184,-0.48 3.102,-0.293 2.937,-0.208C2.772,-0.123 2.54,-0.08 2.24,-0.08" style="fill:white;fill-rule:nonzero;"/>
        </g>
        <g transform="matrix(1,0,0,1,991.186,109.848)">
            <path d="M0,17.952C-0.884,17.936 -1.682,17.363 -1.981,16.526L-6.87,2.877C-7.151,2.095 -6.951,1.21 -6.36,0.624C-5.955,0.222 -5.417,-0.001 -4.845,-0.001C-4.593,-0.001 -4.345,0.043 -4.107,0.129L9.4,5.071C10.229,5.375 10.796,6.17 10.813,7.051C10.829,7.946 10.305,8.744 9.478,9.083L6.322,10.378L9.152,13.238C9.986,14.081 9.979,15.447 9.137,16.281C8.729,16.683 8.191,16.904 7.622,16.904C7.044,16.904 6.5,16.677 6.093,16.266L3.308,13.45L2.041,16.602C1.712,17.423 0.928,17.953 0.044,17.953L0,17.952Z" style="fill-rule:nonzero;"/>
        </g>
        <g transform="matrix(1,0,0,1,986.341,128.801)">
            <path d="M0,-19.954C-0.838,-19.954 -1.627,-19.629 -2.222,-19.038C-3.085,-18.181 -3.378,-16.886 -2.968,-15.74L1.921,-2.09C2.359,-0.865 3.528,-0.026 4.829,-0.001L4.848,-0.001L4.889,0C6.184,0 7.332,-0.777 7.814,-1.979L8.512,-3.717L10.226,-1.985C10.821,-1.382 11.617,-1.05 12.466,-1.05C13.302,-1.05 14.089,-1.373 14.683,-1.961C15.918,-3.183 15.929,-5.183 14.707,-6.419L12.928,-8.217L14.701,-8.945C15.895,-9.434 16.681,-10.631 16.657,-11.921C16.631,-13.233 15.819,-14.371 14.588,-14.821L1.083,-19.762C0.734,-19.89 0.37,-19.954 0,-19.954M0,-17.954C0.133,-17.954 0.267,-17.931 0.396,-17.884L13.901,-12.943C14.347,-12.78 14.647,-12.359 14.657,-11.884C14.666,-11.408 14.382,-10.976 13.942,-10.795L9.405,-8.934L13.285,-5.012C13.733,-4.56 13.729,-3.83 13.276,-3.383C13.052,-3.161 12.759,-3.05 12.466,-3.05C12.169,-3.05 11.873,-3.164 11.647,-3.392L7.792,-7.289L5.958,-2.724C5.782,-2.286 5.358,-2 4.889,-2C4.881,-2 4.874,-2.001 4.867,-2.001C4.388,-2.01 3.965,-2.314 3.804,-2.764L-1.085,-16.413C-1.235,-16.834 -1.129,-17.305 -0.812,-17.62C-0.592,-17.838 -0.299,-17.954 0,-17.954" style="fill:white;fill-rule:nonzero;"/>
        </g>
        <g transform="matrix(1,0,0,1,881.744,213.519)">
            <path d="M0,23.619C-12.402,23.619 -22.118,18.432 -22.118,11.81C-22.118,5.188 -12.402,0 0,0C12.403,0 22.119,5.188 22.119,11.81C22.119,18.432 12.403,23.619 0,23.619" style="fill:white;fill-rule:nonzero;"/>
        </g>
        <g transform="matrix(1,0,0,1,881.745,238.638)">
            <path d="M0,-26.619C-13.465,-26.619 -23.619,-20.897 -23.619,-13.309C-23.619,-5.722 -13.465,0 0,0C13.464,0 23.618,-5.722 23.618,-13.309C23.618,-20.897 13.464,-26.619 0,-26.619M0,-23.619C11.387,-23.619 20.618,-19.003 20.618,-13.309C20.618,-7.616 11.387,-3 0,-3C-11.387,-3 -20.619,-7.616 -20.619,-13.309C-20.619,-19.003 -11.387,-23.619 0,-23.619" style="fill:rgb(63,63,63);fill-rule:nonzero;"/>
        </g>
        <g transform="matrix(1,0,0,1,881.744,192.9)">
            <path d="M0,30.062C-8.288,30.062 -15.03,23.319 -15.03,15.031C-15.03,6.743 -8.288,0 0,0C8.288,0 15.031,6.743 15.031,15.031C15.031,23.319 8.288,30.062 0,30.062" style="fill:white;fill-rule:nonzero;"/>
        </g>
        <g transform="matrix(1,0,0,1,881.745,224.463)">
            <path d="M0,-33.062C-9.115,-33.062 -16.531,-25.646 -16.531,-16.531C-16.531,-7.416 -9.115,0 0,0C9.115,0 16.531,-7.416 16.531,-16.531C16.531,-25.646 9.115,-33.062 0,-33.062M0,-30.062C7.473,-30.062 13.531,-24.004 13.531,-16.531C13.531,-9.059 7.473,-3 0,-3C-7.473,-3 -13.531,-9.059 -13.531,-16.531C-13.531,-24.004 -7.473,-30.062 0,-30.062" style="fill:rgb(63,63,63);fill-rule:nonzero;"/>
        </g>
        <g transform="matrix(1,0,0,1,896.189,121.182)">
            <path d="M0,33.687C-2.291,33.687 -4.155,31.823 -4.155,29.533L-4.155,0C-1.597,4.385 3.158,7.337 8.591,7.337L81.614,7.337C83.905,7.337 85.769,9.201 85.769,11.492L85.769,29.533C85.769,31.823 83.905,33.687 81.614,33.687L0,33.687Z" style="fill:white;fill-rule:nonzero;"/>
        </g>
        <g transform="matrix(1,0,0,1,891.034,155.869)">
            <path d="M0,-42.096L0,-5.155C0,-2.32 2.319,0 5.154,0L86.769,0C89.604,0 91.923,-2.32 91.923,-5.155L91.923,-23.196C91.923,-26.031 89.604,-28.35 86.769,-28.35L13.746,-28.35C6.154,-28.35 0,-34.505 0,-42.096M2,-31.62C4.885,-28.388 9.082,-26.35 13.746,-26.35L86.769,-26.35C88.508,-26.35 89.923,-24.935 89.923,-23.196L89.923,-5.155C89.923,-3.415 88.508,-2 86.769,-2L5.154,-2C3.415,-2 2,-3.415 2,-5.155L2,-14.605L2,-23.196L2,-28.35L2,-31.62" style="fill:rgb(166,166,166);fill-rule:nonzero;"/>
        </g>
        <g transform="matrix(1,0,0,1,913.477,141.909)">
            <path d="M0,0C0,4.745 -3.847,8.591 -8.591,8.591C-13.336,8.591 -17.182,4.745 -17.182,0C-17.182,-4.745 -13.336,-8.591 -8.591,-8.591C-3.847,-8.591 0,-4.745 0,0" style="fill:rgb(122,122,122);fill-rule:nonzero;"/>
        </g>
        <g transform="matrix(1,0,0,1,904.887,142.409)">
            <path d="M0,6.302C-3.688,6.302 -6.803,4.859 -6.803,3.151C-6.803,1.443 -3.688,0 0,0C3.687,0 6.802,1.443 6.802,3.151C6.802,4.859 3.687,6.302 0,6.302" style="fill:rgb(242,242,242);fill-rule:nonzero;"/>
        </g>
        <g transform="matrix(1,0,0,1,904.886,149.211)">
            <path d="M0,-7.302C-4.033,-7.302 -7.302,-5.668 -7.302,-3.651C-7.302,-1.635 -4.033,0 0,0C4.033,0 7.303,-1.635 7.303,-3.651C7.303,-5.668 4.033,-7.302 0,-7.302M0,-6.302C3.607,-6.302 6.303,-4.903 6.303,-3.651C6.303,-2.4 3.607,-1 0,-1C-3.607,-1 -6.302,-2.4 -6.302,-3.651C-6.302,-4.903 -3.607,-6.302 0,-6.302" style="fill:rgb(122,122,122);fill-rule:nonzero;"/>
        </g>
        <g transform="matrix(1,0,0,1,904.887,135.106)">
            <path d="M0,8.584C-2.367,8.584 -4.293,6.659 -4.293,4.292C-4.293,1.925 -2.367,0 0,0C2.366,0 4.292,1.925 4.292,4.292C4.292,6.659 2.366,8.584 0,8.584" style="fill:rgb(242,242,242);fill-rule:nonzero;"/>
        </g>
        <g transform="matrix(1,0,0,1,904.886,144.19)">
            <path d="M0,-9.584C-2.646,-9.584 -4.792,-7.438 -4.792,-4.792C-4.792,-2.145 -2.646,0 0,0C2.647,0 4.792,-2.145 4.792,-4.792C4.792,-7.438 2.647,-9.584 0,-9.584M0,-8.584C2.091,-8.584 3.792,-6.883 3.792,-4.792C3.792,-2.701 2.091,-1 0,-1C-2.091,-1 -3.792,-2.701 -3.792,-4.792C-3.792,-6.883 -2.091,-8.584 0,-8.584" style="fill:rgb(122,122,122);fill-rule:nonzero;"/>
        </g>
        <g transform="matrix(-1,-0,0,1,1898.9,-526.063)">
            <rect x="923.679" y="659.595" width="51.546" height="6.873" style="fill:rgb(204,204,204);"/>
        </g>
        <g transform="matrix(-1,-0,0,1,1898.9,-507.163)">
            <rect x="923.679" y="650.145" width="51.546" height="6.873" style="fill:rgb(204,204,204);"/>
        </g>
    </g>
</svg>
