<?xml version="1.0" encoding="UTF-8" standalone="no"?>
<!DOCTYPE svg PUBLIC "-//W3C//DTD SVG 1.1//EN" "http://www.w3.org/Graphics/SVG/1.1/DTD/svg11.dtd">
<svg width="100%" height="100%" viewBox="0 0 378 200" version="1.1" xmlns="http://www.w3.org/2000/svg" xmlns:xlink="http://www.w3.org/1999/xlink" xml:space="preserve" xmlns:serif="http://www.serif.com/" style="fill-rule:evenodd;clip-rule:evenodd;stroke-miterlimit:10;">
    <g id="tagging" transform="matrix(1.44907,0,0,1.44907,-842.123,-144.334)">
        <g transform="matrix(1,0,0,1,615.102,101.604)">
            <path d="M0,120.838C-4.411,120.838 -8,117.249 -8,112.838L-8,8C-8,3.589 -4.411,0 0,0L159.82,0C164.231,0 167.82,3.589 167.82,8L167.82,112.838C167.82,117.249 164.231,120.838 159.82,120.838L0,120.838Z" style="fill:white;fill-rule:nonzero;"/>
        </g>
        <g transform="matrix(1,0,0,1,581.147,99.6045)">
            <path d="M193.775,0C199.289,0 203.775,4.486 203.775,10L203.775,114.838C203.775,120.352 199.289,124.838 193.775,124.838L33.955,124.838C28.441,124.838 23.955,120.352 23.955,114.838L23.955,10C23.955,4.486 28.441,0 33.955,0L193.775,0ZM199.775,14.31L27.955,14.31L27.955,114.838C27.955,118.138 30.655,120.838 33.955,120.838L193.775,120.838C197.075,120.838 199.775,118.138 199.775,114.838L199.775,14.31Z" style="fill:rgb(63,63,63);"/>
        </g>
        <g transform="matrix(1,0,0,1,618.982,105.682)">
            <path d="M0,6.154C-1.696,6.154 -3.077,4.774 -3.077,3.077C-3.077,1.38 -1.696,0 0,0C1.696,0 3.077,1.38 3.077,3.077C3.077,4.774 1.696,6.154 0,6.154" style="fill:rgb(255,255,248);fill-rule:nonzero;"/>
        </g>
        <g transform="matrix(1,0,0,1,618.982,112.336)">
            <path d="M0,-7.154C-1.973,-7.154 -3.578,-5.55 -3.578,-3.577C-3.578,-1.604 -1.973,0 0,0C1.972,0 3.577,-1.604 3.577,-3.577C3.577,-5.55 1.972,-7.154 0,-7.154M0,-6.154C1.423,-6.154 2.577,-5 2.577,-3.577C2.577,-2.154 1.423,-1 0,-1C-1.424,-1 -2.578,-2.154 -2.578,-3.577C-2.578,-5 -1.424,-6.154 0,-6.154" style="fill:rgb(122,122,122);fill-rule:nonzero;"/>
        </g>
        <g transform="matrix(1,0,0,1,631.439,105.682)">
            <path d="M0,6.154C-1.697,6.154 -3.078,4.774 -3.078,3.077C-3.078,1.38 -1.697,0 0,0C1.696,0 3.077,1.38 3.077,3.077C3.077,4.774 1.696,6.154 0,6.154" style="fill:rgb(255,255,248);fill-rule:nonzero;"/>
        </g>
        <g transform="matrix(1,0,0,1,631.439,112.336)">
            <path d="M0,-7.154C-1.972,-7.154 -3.577,-5.55 -3.577,-3.577C-3.577,-1.604 -1.972,0 0,0C1.973,0 3.578,-1.604 3.578,-3.577C3.578,-5.55 1.973,-7.154 0,-7.154M0,-6.154C1.424,-6.154 2.578,-5 2.578,-3.577C2.578,-2.154 1.424,-1 0,-1C-1.423,-1 -2.577,-2.154 -2.577,-3.577C-2.577,-5 -1.423,-6.154 0,-6.154" style="fill:rgb(122,122,122);fill-rule:nonzero;"/>
        </g>
        <g transform="matrix(1,0,0,1,643.467,105.682)">
            <path d="M0,6.154C-1.696,6.154 -3.077,4.774 -3.077,3.077C-3.077,1.38 -1.696,0 0,0C1.696,0 3.077,1.38 3.077,3.077C3.077,4.774 1.696,6.154 0,6.154" style="fill:rgb(255,255,248);fill-rule:nonzero;"/>
        </g>
        <g transform="matrix(1,0,0,1,643.467,112.336)">
            <path d="M0,-7.154C-1.973,-7.154 -3.578,-5.55 -3.578,-3.577C-3.578,-1.604 -1.973,0 0,0C1.972,0 3.577,-1.604 3.577,-3.577C3.577,-5.55 1.972,-7.154 0,-7.154M0,-6.154C1.423,-6.154 2.577,-5 2.577,-3.577C2.577,-2.154 1.423,-1 0,-1C-1.424,-1 -2.578,-2.154 -2.578,-3.577C-2.578,-5 -1.424,-6.154 0,-6.154" style="fill:rgb(122,122,122);fill-rule:nonzero;"/>
        </g>
        <g transform="matrix(1,0,0,1,0,-541.245)">
            <rect x="618.84" y="666.468" width="83.91" height="8.309" style="fill:rgb(255,254,0);"/>
        </g>
        <g transform="matrix(1,0,0,1,0,-541.245)">
            <path d="M703.75,665.468L617.84,665.468L617.84,675.777L703.75,675.777L703.75,665.468ZM701.75,673.777L619.84,673.777L619.84,667.468L701.75,667.468L701.75,673.777Z" style="fill:rgb(204,204,204);fill-rule:nonzero;"/>
        </g>
        <g transform="matrix(1,0,0,1,0,-510.317)">
            <rect x="618.84" y="651.004" width="83.91" height="8.309" style="fill:rgb(255,254,0);"/>
        </g>
        <g transform="matrix(1,0,0,1,0,-510.317)">
            <path d="M703.75,650.004L617.84,650.004L617.84,660.313L703.75,660.313L703.75,650.004ZM701.75,658.313L619.84,658.313L619.84,652.004L701.75,652.004L701.75,658.313Z" style="fill:rgb(204,204,204);fill-rule:nonzero;"/>
        </g>
        <g transform="matrix(-1,-0,0,1,1321.59,-479.389)">
            <rect x="617.84" y="634.54" width="85.91" height="10.309" style="fill:rgb(204,204,204);"/>
        </g>
        <g transform="matrix(-1,-0,0,1,1321.59,-448.462)">
            <rect x="617.84" y="619.076" width="85.91" height="10.31" style="fill:rgb(205,242,255);stroke:rgb(204,204,204);stroke-width:2px;"/>
        </g>
        <g transform="matrix(-1,-0,0,1,1321.59,-417.534)">
            <rect x="617.84" y="603.612" width="85.91" height="10.31" style="fill:rgb(204,204,204);"/>
        </g>
        <g transform="matrix(1,0,0,1,0,-386.607)">
            <rect x="618.84" y="589.149" width="83.91" height="8.309" style="fill:rgb(255,254,0);"/>
        </g>
        <g transform="matrix(1,0,0,1,0,-386.607)">
            <path d="M703.75,588.149L617.84,588.149L617.84,598.458L703.75,598.458L703.75,588.149ZM701.75,596.458L619.84,596.458L619.84,590.149L701.75,590.149L701.75,596.458Z" style="fill:rgb(204,204,204);fill-rule:nonzero;"/>
        </g>
        <g transform="matrix(1,0,0,1,772.921,116.062)">
            <path d="M0,104.81L-54.137,104.81L-54.137,0L6,0L6,98.81C6,102.124 3.313,104.81 0,104.81" style="fill:rgb(166,166,166);fill-rule:nonzero;"/>
        </g>
        <g transform="matrix(1,0,0,1,707.187,125.723)">
            <path d="M0,33.082C-2.016,33.082 -3.655,31.443 -3.655,29.428L-3.655,12.246C-3.655,7.235 -6.085,2.781 -9.829,0L81.614,0C83.629,0 85.269,1.64 85.269,3.655L85.269,29.428C85.269,31.443 83.629,33.082 81.614,33.082L0,33.082Z" style="fill:white;fill-rule:nonzero;"/>
        </g>
        <g transform="matrix(1,0,0,1,788.801,160.305)">
            <path d="M0,-36.082L-86.769,-36.082L-100.515,-36.082C-92.923,-36.082 -86.769,-29.928 -86.769,-22.336L-86.769,-5.154C-86.769,-2.319 -84.45,0 -81.615,0L0,0C2.835,0 5.154,-2.319 5.154,-5.154L5.154,-30.927C5.154,-33.763 2.835,-36.082 0,-36.082M0,-33.082C1.188,-33.082 2.154,-32.116 2.154,-30.927L2.154,-5.154C2.154,-3.966 1.188,-3 0,-3L-81.615,-3C-82.803,-3 -83.769,-3.966 -83.769,-5.154L-83.769,-22.336C-83.769,-26.423 -85.24,-30.172 -87.681,-33.082L0,-33.082" style="fill:rgb(63,63,63);fill-rule:nonzero;"/>
        </g>
        <g transform="matrix(1,0,0,1,726.194,137.754)">
            <path d="M0,0C0,4.745 -3.847,8.591 -8.591,8.591C-13.336,8.591 -17.182,4.745 -17.182,0C-17.182,-4.745 -13.336,-8.591 -8.591,-8.591C-3.847,-8.591 0,-4.745 0,0" style="fill:rgb(63,63,63);fill-rule:nonzero;"/>
        </g>
        <g transform="matrix(1,0,0,1,717.602,138.254)">
            <path d="M0,6.302C-3.687,6.302 -6.802,4.859 -6.802,3.151C-6.802,1.443 -3.687,0 0,0C3.688,0 6.803,1.443 6.803,3.151C6.803,4.859 3.688,6.302 0,6.302" style="fill:white;fill-rule:nonzero;"/>
        </g>
        <g transform="matrix(1,0,0,1,717.602,145.056)">
            <path d="M0,-7.302C-4.033,-7.302 -7.302,-5.667 -7.302,-3.651C-7.302,-1.635 -4.033,0 0,0C4.033,0 7.303,-1.635 7.303,-3.651C7.303,-5.667 4.033,-7.302 0,-7.302M0,-6.302C3.607,-6.302 6.303,-4.902 6.303,-3.651C6.303,-2.399 3.607,-1 0,-1C-3.607,-1 -6.302,-2.399 -6.302,-3.651C-6.302,-4.902 -3.607,-6.302 0,-6.302" style="fill:rgb(63,63,63);fill-rule:nonzero;"/>
        </g>
        <g transform="matrix(1,0,0,1,717.602,130.952)">
            <path d="M0,8.584C-2.366,8.584 -4.292,6.658 -4.292,4.292C-4.292,1.925 -2.366,0 0,0C2.366,0 4.292,1.925 4.292,4.292C4.292,6.658 2.366,8.584 0,8.584" style="fill:white;fill-rule:nonzero;"/>
        </g>
        <g transform="matrix(1,0,0,1,717.602,140.036)">
            <path d="M0,-9.584C-2.646,-9.584 -4.792,-7.438 -4.792,-4.792C-4.792,-2.145 -2.646,0 0,0C2.647,0 4.792,-2.145 4.792,-4.792C4.792,-7.438 2.647,-9.584 0,-9.584M0,-8.584C2.091,-8.584 3.792,-6.883 3.792,-4.792C3.792,-2.701 2.091,-1 0,-1C-2.091,-1 -3.792,-2.701 -3.792,-4.792C-3.792,-6.883 -2.091,-8.584 0,-8.584" style="fill:rgb(63,63,63);fill-rule:nonzero;"/>
        </g>
        <g transform="matrix(-1,-0,0,1,1520.9,-534.373)">
            <rect x="734.677" y="663.75" width="51.546" height="6.873" style="fill:rgb(204,204,204);"/>
        </g>
        <g transform="matrix(-1,-0,0,1,1520.9,-515.471)">
            <rect x="734.677" y="654.299" width="51.546" height="6.873" style="fill:rgb(204,204,204);"/>
        </g>
        <g transform="matrix(-1,-0,0,1,1520.9,-496.571)">
            <rect x="734.677" y="644.849" width="51.546" height="6.873" style="fill:rgb(204,204,204);"/>
        </g>
        <g transform="matrix(1,0,0,1,711.481,203.042)">
            <path d="M0,33.082C-2.015,33.082 -3.654,31.443 -3.654,29.428L-3.654,12.246C-3.654,7.235 -6.085,2.781 -9.828,0L81.614,0C83.63,0 85.27,1.64 85.27,3.655L85.27,29.428C85.27,31.443 83.63,33.082 81.614,33.082L0,33.082Z" style="fill:white;fill-rule:nonzero;"/>
        </g>
        <g transform="matrix(1,0,0,1,793.096,237.624)">
            <path d="M0,-36.082L-86.769,-36.082L-100.515,-36.082C-92.923,-36.082 -86.769,-29.928 -86.769,-22.336L-86.769,-5.154C-86.769,-2.319 -84.45,0 -81.615,0L0,0C2.835,0 5.154,-2.319 5.154,-5.154L5.154,-30.927C5.154,-33.762 2.835,-36.082 0,-36.082M0,-33.082C1.188,-33.082 2.154,-32.115 2.154,-30.927L2.154,-5.154C2.154,-3.966 1.188,-3 0,-3L-81.615,-3C-82.803,-3 -83.769,-3.966 -83.769,-5.154L-83.769,-22.336C-83.769,-26.423 -85.24,-30.172 -87.681,-33.082L0,-33.082" style="fill:rgb(63,63,63);fill-rule:nonzero;"/>
        </g>
        <g transform="matrix(1,0,0,1,728.771,215.073)">
            <path d="M0,0C0,4.745 -3.846,8.591 -8.591,8.591C-13.336,8.591 -17.182,4.745 -17.182,0C-17.182,-4.745 -13.336,-8.591 -8.591,-8.591C-3.846,-8.591 0,-4.745 0,0" style="fill:rgb(63,63,63);fill-rule:nonzero;"/>
        </g>
        <g transform="matrix(1,0,0,1,720.18,215.572)">
            <path d="M0,6.303C-3.687,6.303 -6.802,4.86 -6.802,3.152C-6.802,1.444 -3.687,0 0,0C3.688,0 6.803,1.444 6.803,3.152C6.803,4.86 3.688,6.303 0,6.303" style="fill:white;fill-rule:nonzero;"/>
        </g>
        <g transform="matrix(1,0,0,1,720.18,222.375)">
            <path d="M0,-7.302C-4.033,-7.302 -7.303,-5.667 -7.303,-3.651C-7.303,-1.634 -4.033,0 0,0C4.033,0 7.302,-1.634 7.302,-3.651C7.302,-5.667 4.033,-7.302 0,-7.302M0,-6.302C3.607,-6.302 6.302,-4.902 6.302,-3.651C6.302,-2.399 3.607,-1 0,-1C-3.607,-1 -6.303,-2.399 -6.303,-3.651C-6.303,-4.902 -3.607,-6.302 0,-6.302" style="fill:rgb(63,63,63);fill-rule:nonzero;"/>
        </g>
        <g transform="matrix(1,0,0,1,720.18,208.271)">
            <path d="M0,8.584C-2.366,8.584 -4.292,6.658 -4.292,4.292C-4.292,1.925 -2.366,0 0,0C2.366,0 4.292,1.925 4.292,4.292C4.292,6.658 2.366,8.584 0,8.584" style="fill:white;fill-rule:nonzero;"/>
        </g>
        <g transform="matrix(1,0,0,1,720.18,217.354)">
            <path d="M0,-9.584C-2.647,-9.584 -4.792,-7.438 -4.792,-4.792C-4.792,-2.145 -2.647,0 0,0C2.646,0 4.792,-2.145 4.792,-4.792C4.792,-7.438 2.646,-9.584 0,-9.584M0,-8.584C2.091,-8.584 3.792,-6.883 3.792,-4.792C3.792,-2.701 2.091,-1 0,-1C-2.091,-1 -3.792,-2.701 -3.792,-4.792C-3.792,-6.883 -2.091,-8.584 0,-8.584" style="fill:rgb(63,63,63);fill-rule:nonzero;"/>
        </g>
        <g transform="matrix(-1,-0,0,1,1529.49,-379.735)">
            <rect x="738.973" y="586.431" width="51.546" height="6.873" style="fill:rgb(204,204,204);"/>
        </g>
        <g transform="matrix(-1,-0,0,1,1529.49,-360.833)">
            <rect x="738.973" y="576.98" width="51.546" height="6.873" style="fill:rgb(204,204,204);"/>
        </g>
        <g transform="matrix(-1,-0,0,1,1529.49,-341.933)">
            <rect x="738.973" y="567.53" width="51.546" height="6.873" style="fill:rgb(204,204,204);"/>
        </g>
        <g transform="matrix(1,0,0,1,631.025,176.902)">
            <path d="M0,0C0,4.745 -3.846,8.591 -8.591,8.591C-13.336,8.591 -17.182,4.745 -17.182,0C-17.182,-4.745 -13.336,-8.591 -8.591,-8.591C-3.846,-8.591 0,-4.745 0,0" style="fill:white;fill-rule:nonzero;"/>
        </g>
        <g transform="matrix(1,0,0,1,622.434,169.028)">
            <path d="M0,15.746C-4.341,15.746 -7.873,12.214 -7.873,7.873C-7.873,3.532 -4.341,0 0,0C4.341,0 7.873,3.532 7.873,7.873C7.873,12.214 4.341,15.746 0,15.746" style="fill:rgb(63,63,63);fill-rule:nonzero;"/>
        </g>
        <g transform="matrix(1,0,0,1,622.434,185.775)">
            <path d="M0,-17.746C-4.893,-17.746 -8.873,-13.766 -8.873,-8.873C-8.873,-3.981 -4.893,0 0,0C4.892,0 8.873,-3.981 8.873,-8.873C8.873,-13.766 4.892,-17.746 0,-17.746M-2.5,-8.248L-0.625,-8.248L-0.625,-6.374C-0.625,-6.029 -0.345,-5.749 0,-5.749C0.345,-5.749 0.625,-6.029 0.625,-6.374L0.625,-8.248L2.499,-8.248C2.844,-8.248 3.124,-8.528 3.124,-8.873C3.124,-9.218 2.844,-9.498 2.499,-9.498L0.625,-9.498L0.625,-11.372C0.625,-11.717 0.345,-11.997 0,-11.997C-0.345,-11.997 -0.625,-11.717 -0.625,-11.372L-0.625,-9.498L-2.5,-9.498C-2.844,-9.498 -3.125,-9.218 -3.125,-8.873C-3.125,-8.528 -2.844,-8.248 -2.5,-8.248M0,-15.746C3.79,-15.746 6.873,-12.663 6.873,-8.873C6.873,-5.083 3.79,-2 0,-2C-3.79,-2 -6.873,-5.083 -6.873,-8.873C-6.873,-12.663 -3.79,-15.746 0,-15.746" style="fill:white;fill-rule:nonzero;"/>
        </g>
        <g transform="matrix(1,0,0,1,586.8,163.121)">
            <path d="M0,27.562C-2.565,27.562 -4.652,25.475 -4.652,22.91L-4.652,4.651C-4.652,2.086 -2.565,0 0,0L20.084,0C21.72,0 23.132,0.727 23.863,1.945L32.267,13.781L23.821,25.68C23.132,26.834 21.719,27.562 20.084,27.562L0,27.562Z" style="fill:rgb(63,63,63);fill-rule:nonzero;"/>
        </g>
        <g transform="matrix(1,0,0,1,606.884,191.683)">
            <path d="M0,-29.563L-20.085,-29.563C-23.201,-29.563 -25.737,-27.027 -25.737,-23.911L-25.737,-5.652C-25.737,-2.536 -23.201,0 -20.085,0L0,0C1.957,0 3.666,-0.879 4.591,-2.357L12.586,-13.624L13.408,-14.781L12.586,-15.939L4.591,-27.206C3.666,-28.683 1.957,-29.563 0,-29.563M0,-27.563C1.278,-27.563 2.374,-27.015 2.921,-26.102L10.956,-14.781L2.921,-3.461C2.374,-2.548 1.278,-2 0,-2L-20.085,-2C-22.093,-2 -23.737,-3.644 -23.737,-5.652L-23.737,-23.911C-23.737,-25.919 -22.093,-27.563 -20.085,-27.563L0,-27.563" style="fill:white;fill-rule:nonzero;"/>
        </g>
        <g transform="matrix(1,0,0,1,593.604,178.988)">
            <path d="M0,-5.039L-1.631,-5.039L-1.631,0.322C-1.631,0.631 -1.7,0.86 -1.837,1.009C-1.975,1.159 -2.153,1.233 -2.371,1.233C-2.592,1.233 -2.773,1.158 -2.912,1.007C-3.051,0.856 -3.121,0.628 -3.121,0.322L-3.121,-5.039L-4.752,-5.039C-5.007,-5.039 -5.196,-5.095 -5.321,-5.207C-5.445,-5.32 -5.507,-5.468 -5.507,-5.653C-5.507,-5.844 -5.442,-5.995 -5.313,-6.106C-5.184,-6.217 -4.997,-6.272 -4.752,-6.272L0,-6.272C0.258,-6.272 0.451,-6.215 0.577,-6.101C0.702,-5.987 0.765,-5.837 0.765,-5.653C0.765,-5.468 0.702,-5.32 0.574,-5.207C0.446,-5.095 0.255,-5.039 0,-5.039" style="fill:white;fill-rule:nonzero;"/>
        </g>
        <g transform="matrix(1,0,0,1,598.028,177.388)">
            <path d="M0,0.07C-0.201,0.144 -0.494,0.222 -0.878,0.304C-1.263,0.386 -1.529,0.446 -1.676,0.485C-1.824,0.524 -1.965,0.599 -2.099,0.712C-2.233,0.824 -2.3,0.981 -2.3,1.182C-2.3,1.39 -2.222,1.568 -2.064,1.714C-1.906,1.86 -1.7,1.932 -1.445,1.932C-1.173,1.932 -0.922,1.873 -0.692,1.754C-0.462,1.634 -0.293,1.481 -0.187,1.293C-0.062,1.085 0,0.743 0,0.266L0,0.07ZM0.09,2.058C-0.242,2.317 -0.563,2.51 -0.874,2.64C-1.184,2.769 -1.532,2.834 -1.918,2.834C-2.271,2.834 -2.58,2.764 -2.847,2.625C-3.113,2.486 -3.319,2.297 -3.463,2.058C-3.607,1.82 -3.68,1.562 -3.68,1.283C-3.68,0.907 -3.561,0.587 -3.322,0.321C-3.084,0.056 -2.757,-0.121 -2.341,-0.212C-2.253,-0.232 -2.037,-0.277 -1.691,-0.348C-1.346,-0.418 -1.05,-0.483 -0.803,-0.542C-0.556,-0.6 -0.289,-0.672 0,-0.756C-0.017,-1.118 -0.09,-1.384 -0.219,-1.554C-0.348,-1.723 -0.616,-1.807 -1.022,-1.807C-1.371,-1.807 -1.633,-1.759 -1.81,-1.662C-1.986,-1.564 -2.137,-1.418 -2.263,-1.224C-2.389,-1.029 -2.478,-0.901 -2.529,-0.839C-2.582,-0.777 -2.693,-0.745 -2.864,-0.745C-3.019,-0.745 -3.152,-0.795 -3.265,-0.894C-3.377,-0.993 -3.433,-1.12 -3.433,-1.274C-3.433,-1.516 -3.348,-1.751 -3.176,-1.979C-3.005,-2.207 -2.738,-2.395 -2.376,-2.543C-2.014,-2.69 -1.562,-2.764 -1.022,-2.764C-0.418,-2.764 0.057,-2.693 0.403,-2.55C0.749,-2.408 0.993,-2.182 1.135,-1.873C1.278,-1.564 1.349,-1.155 1.349,-0.645C1.349,-0.323 1.348,-0.049 1.347,0.175C1.345,0.401 1.342,0.651 1.339,0.925C1.339,1.184 1.382,1.453 1.467,1.734C1.553,2.014 1.596,2.194 1.596,2.275C1.596,2.416 1.529,2.544 1.397,2.66C1.264,2.776 1.114,2.834 0.946,2.834C0.805,2.834 0.666,2.767 0.528,2.634C0.391,2.502 0.245,2.31 0.09,2.058" style="fill:white;fill-rule:nonzero;"/>
        </g>
        <g transform="matrix(1,0,0,1,601.708,179.511)">
            <path d="M0,-2.129C0,-1.572 0.122,-1.15 0.365,-0.865C0.608,-0.58 0.923,-0.438 1.309,-0.438C1.537,-0.438 1.752,-0.499 1.956,-0.621C2.159,-0.744 2.324,-0.928 2.451,-1.175C2.579,-1.421 2.643,-1.721 2.643,-2.073C2.643,-2.634 2.52,-3.07 2.273,-3.382C2.026,-3.694 1.701,-3.851 1.299,-3.851C0.906,-3.851 0.591,-3.701 0.355,-3.402C0.118,-3.104 0,-2.679 0,-2.129M3.981,-3.871L3.981,0.121C3.981,0.578 3.933,0.97 3.836,1.299C3.738,1.628 3.583,1.9 3.368,2.115C3.153,2.329 2.872,2.489 2.524,2.593C2.177,2.697 1.745,2.749 1.228,2.749C0.755,2.749 0.332,2.683 -0.041,2.55C-0.413,2.417 -0.7,2.246 -0.901,2.037C-1.103,1.827 -1.203,1.611 -1.203,1.39C-1.203,1.222 -1.146,1.085 -1.032,0.979C-0.918,0.874 -0.78,0.821 -0.619,0.821C-0.418,0.821 -0.242,0.91 -0.091,1.088C-0.017,1.178 0.06,1.27 0.138,1.362C0.217,1.454 0.305,1.533 0.4,1.599C0.496,1.664 0.611,1.713 0.745,1.745C0.879,1.776 1.034,1.792 1.208,1.792C1.564,1.792 1.84,1.743 2.036,1.644C2.232,1.545 2.37,1.407 2.449,1.228C2.528,1.051 2.574,0.86 2.587,0.657C2.601,0.454 2.611,0.128 2.618,-0.322C2.406,-0.026 2.162,0.199 1.885,0.353C1.608,0.507 1.278,0.584 0.896,0.584C0.436,0.584 0.034,0.467 -0.31,0.232C-0.654,-0.003 -0.918,-0.332 -1.103,-0.754C-1.287,-1.177 -1.379,-1.666 -1.379,-2.219C-1.379,-2.632 -1.323,-3.005 -1.21,-3.337C-1.098,-3.669 -0.938,-3.949 -0.73,-4.178C-0.522,-4.406 -0.282,-4.578 -0.01,-4.693C0.262,-4.809 0.561,-4.867 0.886,-4.867C1.275,-4.867 1.612,-4.793 1.897,-4.643C2.183,-4.494 2.448,-4.26 2.693,-3.941L2.693,-4.128C2.693,-4.365 2.752,-4.55 2.869,-4.681C2.987,-4.812 3.138,-4.878 3.322,-4.878C3.587,-4.878 3.764,-4.791 3.851,-4.618C3.938,-4.445 3.981,-4.196 3.981,-3.871" style="fill:white;fill-rule:nonzero;"/>
        </g>
        <g transform="matrix(1,0,0,1,821.446,180.064)">
            <path d="M0,-14.604L-73.023,-14.604C-80.615,-14.604 -86.769,-20.758 -86.769,-28.35L-86.769,8.592C-86.769,11.427 -84.449,13.746 -81.614,13.746L0,13.746C2.835,13.746 5.155,11.427 5.155,8.592L5.155,-9.45C5.155,-12.285 2.835,-14.604 0,-14.604Z" style="fill:white;fill-rule:nonzero;stroke:rgb(63,63,63);stroke-width:3px;stroke-linecap:square;"/>
        </g>
        <g transform="matrix(1,0,0,1,758.839,179.85)">
            <path d="M0,0C0,4.745 -3.846,8.591 -8.591,8.591C-13.335,8.591 -17.182,4.745 -17.182,0C-17.182,-4.745 -13.335,-8.591 -8.591,-8.591C-3.846,-8.591 0,-4.745 0,0" style="fill:rgb(63,63,63);fill-rule:nonzero;"/>
        </g>
        <g transform="matrix(1,0,0,1,750.248,180.349)">
            <path d="M0,6.303C-3.687,6.303 -6.802,4.86 -6.802,3.152C-6.802,1.444 -3.687,0 0,0C3.688,0 6.803,1.444 6.803,3.152C6.803,4.86 3.688,6.303 0,6.303" style="fill:white;fill-rule:nonzero;"/>
        </g>
        <g transform="matrix(1,0,0,1,750.249,187.153)">
            <path d="M0,-7.303C-4.033,-7.303 -7.302,-5.668 -7.302,-3.652C-7.302,-1.635 -4.033,0 0,0C4.033,0 7.302,-1.635 7.302,-3.652C7.302,-5.668 4.033,-7.303 0,-7.303M0,-6.303C3.607,-6.303 6.302,-4.903 6.302,-3.652C6.302,-2.4 3.607,-1 0,-1C-3.607,-1 -6.302,-2.4 -6.302,-3.652C-6.302,-4.903 -3.607,-6.303 0,-6.303" style="fill:rgb(63,63,63);fill-rule:nonzero;"/>
        </g>
        <g transform="matrix(1,0,0,1,750.248,173.048)">
            <path d="M0,8.584C-2.366,8.584 -4.292,6.659 -4.292,4.292C-4.292,1.925 -2.366,0 0,0C2.367,0 4.293,1.925 4.293,4.292C4.293,6.659 2.367,8.584 0,8.584" style="fill:white;fill-rule:nonzero;"/>
        </g>
        <g transform="matrix(1,0,0,1,750.249,182.131)">
            <path d="M0,-9.584C-2.646,-9.584 -4.792,-7.438 -4.792,-4.792C-4.792,-2.145 -2.646,0 0,0C2.646,0 4.792,-2.145 4.792,-4.792C4.792,-7.438 2.646,-9.584 0,-9.584M0,-8.584C2.091,-8.584 3.792,-6.883 3.792,-4.792C3.792,-2.701 2.091,-1 0,-1C-2.091,-1 -3.792,-2.701 -3.792,-4.792C-3.792,-6.883 -2.091,-8.584 0,-8.584" style="fill:rgb(63,63,63);fill-rule:nonzero;"/>
        </g>
        <g transform="matrix(-1,-0,0,1,1586.19,-450.181)">
            <rect x="767.323" y="621.654" width="51.546" height="6.873" style="fill:rgb(204,204,204);"/>
        </g>
        <g transform="matrix(-1,-0,0,1,1586.19,-431.281)">
            <rect x="767.323" y="612.204" width="51.546" height="6.873" style="fill:rgb(204,204,204);"/>
        </g>
        <g transform="matrix(1,0,0,1,715.88,184.504)">
            <path d="M0,-5.932L-13.505,-10.873C-13.634,-10.92 -13.768,-10.943 -13.901,-10.943C-14.2,-10.943 -14.493,-10.827 -14.713,-10.608C-15.03,-10.293 -15.136,-9.823 -14.985,-9.403L-10.097,4.247C-9.936,4.697 -9.513,5.001 -9.034,5.01C-9.027,5.01 -9.02,5.011 -9.012,5.011C-8.542,5.011 -8.119,4.725 -7.943,4.288L-6.109,-0.278L-2.253,3.619C-2.028,3.847 -1.731,3.961 -1.435,3.961C-1.142,3.961 -0.849,3.85 -0.624,3.629C-0.172,3.181 -0.168,2.451 -0.615,1.999L-4.495,-1.923L0.042,-3.784C0.481,-3.965 0.765,-4.397 0.756,-4.872C0.747,-5.348 0.446,-5.768 0,-5.932" style="fill-rule:nonzero;"/>
        </g>
    </g>
</svg>
